<svg width="32" height="32" viewBox="0 0 32 32" fill="none" xmlns="http://www.w3.org/2000/svg">
<path d="M16.029 0.120117C7.20993 0.120117 0.0585938 7.39205 0.0585938 16.3632C0.0585938 23.5399 4.63459 29.6285 10.9801 31.7764C11.7783 31.9267 12.0713 31.424 12.0713 30.995C12.0713 30.6076 12.0565 29.3281 12.0496 27.9708C7.60663 28.9534 6.66911 26.0543 6.66911 26.0543C5.94263 24.1768 4.89588 23.6776 4.89588 23.6776C3.44689 22.6694 5.00511 22.6902 5.00511 22.6902C6.60881 22.8045 7.45324 24.364 7.45324 24.364C8.87764 26.8473 11.1893 26.1294 12.1006 25.7143C12.244 24.6648 12.6579 23.9476 13.1146 23.5423C9.56735 23.1316 5.83843 21.7388 5.83843 15.5148C5.83843 13.7414 6.4623 12.2924 7.48392 11.1548C7.3181 10.7455 6.77145 9.09364 7.63863 6.85624C7.63863 6.85624 8.97972 6.41968 12.0316 8.52124C13.3055 8.16134 14.6718 7.98086 16.029 7.97467C17.3862 7.98086 18.7535 8.16134 20.0298 8.52124C23.078 6.41968 24.4172 6.85624 24.4172 6.85624C25.2865 9.09364 24.7396 10.7455 24.5738 11.1548C25.5978 12.2924 26.2174 13.7414 26.2174 15.5148C26.2174 21.7536 22.4813 23.1272 18.9251 23.5294C19.4979 24.0334 20.0083 25.022 20.0083 26.5374C20.0083 28.7105 19.9898 30.4597 19.9898 30.995C19.9898 31.4272 20.2773 31.9337 21.0868 31.7742C27.4289 29.624 31.9991 23.5374 31.9991 16.3632C31.9991 7.39205 24.8488 0.120117 16.029 0.120117Z" fill="#F4E5FF"/>
<path d="M6.1074 23.4419C6.07222 23.5228 5.9474 23.5468 5.83368 23.4914C5.71784 23.4384 5.65278 23.3284 5.69034 23.2474C5.72472 23.1643 5.84981 23.1414 5.96538 23.1966C6.08148 23.2498 6.14759 23.3609 6.1074 23.4419Z" fill="#F4E5FF"/>
<path d="M6.75387 24.1755C6.6777 24.2473 6.52881 24.214 6.42779 24.1004C6.32332 23.9872 6.30375 23.8358 6.38098 23.7629C6.45952 23.6911 6.60392 23.7247 6.70865 23.8379C6.81311 23.9525 6.83347 24.1029 6.75387 24.1755Z" fill="#F4E5FF"/>
<path d="M7.38399 25.1108C7.28614 25.1799 7.12614 25.1151 7.02723 24.9707C6.92938 24.8262 6.92938 24.653 7.02934 24.5836C7.12852 24.5142 7.28614 24.5766 7.38637 24.72C7.48395 24.8666 7.48395 25.0401 7.38399 25.1108Z" fill="#F4E5FF"/>
<path d="M8.24618 26.0146C8.15864 26.1128 7.9722 26.0864 7.83574 25.9525C7.6961 25.8215 7.65722 25.6356 7.74502 25.5374C7.83362 25.439 8.02112 25.4667 8.15864 25.5996C8.29722 25.7303 8.33954 25.9175 8.24618 26.0146Z" fill="#F4E5FF"/>
<path d="M9.43659 26.5393C9.39798 26.6666 9.21841 26.7244 9.03752 26.6703C8.85689 26.6147 8.73868 26.4656 8.77517 26.3371C8.81273 26.209 8.99309 26.1488 9.1753 26.2066C9.35567 26.262 9.47415 26.41 9.43659 26.5393Z" fill="#F4E5FF"/>
<path d="M10.7439 26.637C10.7484 26.7709 10.595 26.882 10.4051 26.8842C10.2142 26.8887 10.0597 26.7803 10.0576 26.6485C10.0576 26.5132 10.2076 26.4032 10.3985 26.4C10.5884 26.3962 10.7439 26.5038 10.7439 26.637Z" fill="#F4E5FF"/>
<path d="M11.9602 26.4264C11.983 26.5572 11.851 26.6914 11.6624 26.7269C11.477 26.7616 11.3054 26.6809 11.2819 26.5513C11.2589 26.4173 11.3932 26.2831 11.5783 26.2484C11.7672 26.215 11.9361 26.2936 11.9602 26.4264Z" fill="#F4E5FF"/>
</svg>
