<svg width="146" height="146" viewBox="0 0 146 146" fill="none" xmlns="http://www.w3.org/2000/svg">
<circle cx="73" cy="73" r="72.5" fill="url(#paint0_linear_1365_871)"/>
<circle cx="73" cy="73" r="72.5" fill="#F4E5FF"/>
<circle cx="73" cy="73" r="72.5" stroke="#D5E0E6"/>
<path d="M32.2182 115.394C32.5649 114.995 33.0082 114.754 33.6756 114.708C34.3429 114.662 35.2586 115.051 36.2459 115.91L37.8637 117.319C38.0047 117.442 38.036 117.556 37.9566 117.648C37.9205 117.689 37.8356 117.703 37.6938 117.681C37.5282 117.654 37.404 117.662 37.2975 117.701C37.1145 117.76 36.8358 118.014 36.453 118.453L33.5493 121.788C33.2532 122.129 33.0665 122.36 33.0047 122.481C32.9346 122.595 32.9277 122.72 32.9684 122.858C33.0123 123.042 33.145 123.157 33.0367 123.282C32.9572 123.373 32.8475 123.365 32.7148 123.25L31.097 121.841C30.7734 121.559 30.5401 121.342 30.3897 121.196C30.065 120.899 29.6601 120.342 29.5626 119.834C29.4579 119.335 29.5758 118.898 29.9152 118.508C30.2475 118.126 30.6547 117.927 31.1214 117.91C31.588 117.893 32.0012 118.005 32.3764 118.244C32.4251 118.272 32.4644 118.277 32.4861 118.252C32.5077 118.227 32.5056 118.196 32.4641 118.16C31.6414 117.312 31.5031 116.215 32.2182 115.394ZM32.9162 116.016C32.1289 116.92 32.4333 117.827 33.6197 118.86C33.8271 119.04 34.2906 119.429 34.2906 119.429C34.3653 119.494 34.4273 119.49 34.4923 119.415L35.7997 117.914C36.2547 117.391 36.4971 117.062 36.504 116.937C36.511 116.812 36.3822 116.642 36.125 116.418L35.8844 116.208C34.6981 115.175 33.7035 115.112 32.9162 116.016ZM32.2749 121.962L33.9795 120.004C34.059 119.913 34.0453 119.828 33.9457 119.742L33.4314 119.294C32.3031 118.312 31.385 118.227 30.6844 119.032C30.3449 119.422 30.2652 119.848 30.3571 120.161C30.3916 120.323 30.481 120.488 30.6108 120.674C30.8549 121.047 31.0541 121.22 31.3942 121.516C31.4357 121.553 31.527 121.632 31.6835 121.754L31.9573 121.992C32.0651 122.086 32.1738 122.078 32.2749 121.962Z" fill="black"/>
<path d="M28.6434 112.69L28.5225 112.802C28.4984 112.825 28.4978 112.84 28.5128 112.856C28.5203 112.864 28.5433 112.873 28.5588 112.873C28.7679 112.904 29.0984 113.018 29.5505 113.213C29.9946 113.416 30.3171 113.537 30.5175 113.591C30.9725 113.708 31.3409 113.636 31.639 113.359C32.0498 112.977 32.0379 112.447 31.6559 112.036C31.3038 111.658 30.7343 111.482 30.1201 111.677C29.7344 111.795 29.2395 112.135 28.6434 112.69ZM29.5156 110.106C29.4482 110.034 29.451 109.956 29.5316 109.881C29.7249 109.701 30.1752 109.733 30.4224 109.999C30.7145 110.313 30.6618 110.693 30.2642 111.138C30.2401 111.16 30.2395 111.176 30.247 111.184C30.2545 111.192 30.27 111.192 30.3092 111.186C30.9678 111.054 31.6658 111.336 32.1452 111.852C32.4598 112.19 32.6328 112.57 32.6797 112.992C32.7266 113.414 32.5892 113.767 32.2751 114.059C31.9367 114.374 31.505 114.475 30.9954 114.363C30.7172 114.306 30.3722 114.161 29.9368 113.935C29.5014 113.709 29.2341 113.567 29.1114 113.516C28.4825 113.26 27.9828 113.304 27.6203 113.641C27.2014 114.031 27.1419 114.597 27.5689 115.056C27.8011 115.305 28.0683 115.447 28.3937 115.49C28.8117 115.552 29.3695 115.409 29.5181 115.391C29.6436 115.365 29.7363 115.384 29.7962 115.448C29.9086 115.569 29.8402 115.738 29.6065 115.955C29.3327 116.21 29.1019 116.349 28.8986 116.373C28.6724 116.388 28.3804 116.284 28.0307 116.053C27.7946 115.912 27.5682 115.717 27.336 115.468C26.879 114.976 26.672 114.463 26.7229 113.92C26.7703 113.47 27.0763 112.975 27.6644 112.428C27.8013 112.301 28.0344 112.099 28.356 111.815C28.6777 111.531 28.9113 111.314 29.0724 111.164C29.3221 110.932 29.4027 110.857 29.5655 110.661C29.7208 110.456 29.7414 110.317 29.6441 110.212C29.6216 110.188 29.5381 110.13 29.5156 110.106Z" fill="black"/>
<path d="M22.0974 111.875C22.1926 111.801 22.3594 111.782 22.6065 111.811C22.8382 111.839 22.9957 111.898 23.0704 111.993C23.1383 112.079 23.1574 112.246 23.1276 112.493C23.091 112.732 23.0328 112.889 22.9463 112.957C22.8684 113.018 22.7016 113.037 22.4612 113.016C22.2141 112.986 22.0566 112.928 21.9887 112.842C21.914 112.746 21.895 112.58 21.9316 112.341C21.9527 112.101 22.0109 111.943 22.0974 111.875ZM27.5901 107.257C27.5741 107.13 27.5921 107.046 27.6354 107.012C27.7305 106.937 27.8368 106.966 27.9387 107.096L28.9505 108.385C29.0524 108.515 29.0548 108.625 28.9596 108.7C28.9077 108.74 28.8218 108.738 28.7106 108.685C28.5395 108.61 28.4092 108.586 28.306 108.597C28.1083 108.613 27.7714 108.807 27.2782 109.194L25.3052 110.742C25.0542 110.939 24.9188 111.087 24.8972 111.202C24.8773 111.302 24.8933 111.429 24.9692 111.579C25.0365 111.736 25.0389 111.846 24.9696 111.901C24.8745 111.975 24.804 111.975 24.6046 111.81C24.3471 111.606 24.1013 111.435 23.8517 111.296C23.7715 111.247 23.7134 111.208 23.693 111.183C23.6115 111.079 23.64 110.972 23.7785 110.864L26.7553 108.528C27.2399 108.147 27.5175 107.86 27.5794 107.671C27.6233 107.567 27.6246 107.426 27.5901 107.257Z" fill="black"/>
<path d="M23.7305 101.896C23.7528 101.606 23.6323 101.278 23.7731 101.253C23.8747 101.187 23.9686 101.231 24.0642 101.379L24.8466 102.589C24.9542 102.755 24.9617 102.868 24.8694 102.928C24.8139 102.964 24.7287 102.953 24.6227 102.891C24.5168 102.828 24.4315 102.818 24.3853 102.848C24.3392 102.878 24.2957 102.932 24.2609 103.02C24.1223 103.332 23.8749 104.003 23.5155 105.048C23.5089 105.078 23.5117 105.103 23.5176 105.112C23.5236 105.121 23.5388 105.124 23.5692 105.131C24.3803 105.17 24.9599 105.175 25.3082 105.146C25.4608 105.139 25.5711 105.107 25.6358 105.065C25.7281 105.006 25.7754 104.896 25.7625 104.735C25.7495 104.573 25.7723 104.466 25.8185 104.436C25.9201 104.371 26.0233 104.409 26.1249 104.566L26.8894 105.748C26.9969 105.914 26.9952 106.033 26.8936 106.099C26.8219 106.211 26.553 106.018 26.4531 105.965C26.1772 105.842 25.7909 105.751 25.2852 105.698C24.874 105.65 24.246 105.61 23.4105 105.574C23.3219 105.579 23.3127 105.585 23.2904 105.652L22.757 107.136C22.5439 107.759 22.428 108.188 22.4068 108.398C22.3811 108.703 22.5033 108.912 22.3647 109.001C22.2631 109.067 22.1692 109.023 22.0736 108.875L21.2971 107.674C21.1956 107.517 21.194 107.414 21.2863 107.354C21.388 107.288 21.6204 107.465 21.7313 107.394C21.7774 107.364 21.8334 107.288 21.89 107.173C22.0443 106.824 22.2885 106.169 22.6038 105.218C22.6169 105.157 22.605 105.139 22.5349 105.132C21.6353 105.098 21.0371 105.105 20.7405 105.152C20.6335 105.169 20.5476 105.199 20.5015 105.228C20.3998 105.294 20.3678 105.407 20.39 105.562C20.4122 105.718 20.3926 105.81 20.3372 105.845C20.2356 105.911 20.1264 105.864 20.0249 105.707L19.2603 104.525C19.1588 104.367 19.1512 104.254 19.2528 104.189C19.3881 104.114 19.5206 104.238 19.6934 104.323C19.9085 104.433 20.3039 104.518 20.8493 104.571C21.3947 104.625 22.0227 104.664 22.7148 104.701C22.8034 104.696 22.7849 104.708 22.8257 104.629L23.3775 103.133C23.5999 102.504 23.7185 102.1 23.7305 101.896Z" fill="black"/>
<path d="M19.9168 101.271C19.9757 101.241 19.9903 101.197 19.9606 101.138L19.0739 99.3801C18.752 98.7417 18.4709 98.5508 17.9896 98.7935C17.7245 98.9273 17.5334 99.1592 17.4214 99.499C17.3045 99.829 17.3451 100.178 17.5284 100.542C17.6968 100.875 17.9534 101.116 18.2933 101.252C18.9781 101.535 19.573 101.445 19.9168 101.271ZM20.3388 96.7094C20.5549 96.6005 20.934 96.6926 21.4713 97.0007C21.9198 97.2549 22.2704 97.6325 22.5181 98.1236C22.8549 98.7915 22.9015 99.4702 22.6628 100.145C22.4143 100.825 21.9143 101.348 21.158 101.729C20.4018 102.111 19.6347 102.202 18.842 102.023C18.0494 101.843 17.4624 101.388 17.0959 100.661C16.8135 100.101 16.7525 99.5407 16.9277 98.9842C17.1078 98.4375 17.4262 98.0428 17.8879 97.81C18.3986 97.5525 18.6941 97.6498 18.9764 98.2096L20.3782 100.989C20.4129 101.058 20.4622 101.082 20.5309 101.048C21.1399 100.741 21.5666 100.365 21.8012 99.9266C22.1287 99.3302 22.1612 98.7594 21.8887 98.2193C21.7253 97.8951 21.4931 97.6303 21.1875 97.4395C20.9213 97.2781 20.5864 97.1759 20.4091 97.1175C20.1432 97.0299 20.1719 96.7936 20.3388 96.7094Z" fill="black"/>
<path d="M16.995 83.943C17.0154 83.8117 17.0642 83.741 17.1383 83.7203C17.2549 83.6877 17.3315 83.7577 17.3788 83.9272L17.8136 85.4847C17.8609 85.6542 17.8316 85.7537 17.7151 85.7863C17.6409 85.807 17.5625 85.7718 17.48 85.6806C17.375 85.55 17.2607 85.4677 17.137 85.4337C16.9273 85.378 16.5417 85.4286 15.959 85.5913L14.179 86.0881C13.6599 86.2331 13.3063 86.4802 13.1366 86.8131C12.9944 87.0812 12.976 87.3833 13.0676 87.7117C13.1741 88.0932 13.4006 88.3726 13.7335 88.5423C13.9851 88.6662 14.3172 88.7105 14.7028 88.66C15.0884 88.6095 15.7436 88.4608 16.6865 88.1976C17.2481 88.0409 17.6147 87.8814 17.7729 87.7116C17.8428 87.635 17.901 87.516 17.9414 87.3334C17.9648 87.2127 18.0136 87.1419 18.0877 87.1212C18.2043 87.0887 18.2809 87.1587 18.3282 87.3282L18.763 88.8856C18.8103 89.0552 18.781 89.1547 18.6645 89.1872C18.5903 89.208 18.5119 89.1727 18.4264 89.071C18.3109 88.9433 18.1965 88.8611 18.0864 88.8347C17.8767 88.779 17.4911 88.8296 16.9084 88.9922L15.1284 89.4891C14.5351 89.6547 14.168 89.8943 14.03 90.2183C13.9243 90.4534 13.9182 90.7177 13.998 91.0038C14.1045 91.3852 14.3204 91.6676 14.6592 91.8585C14.9273 92.0007 15.2654 92.0662 15.6781 92.0309C16.0908 91.9957 16.7354 91.85 17.6359 91.5986C18.2398 91.43 18.5959 91.2735 18.7252 91.1232C18.7952 91.0466 18.8504 90.917 18.8937 90.745C18.9171 90.6242 18.9659 90.5535 19.0401 90.5328C19.1566 90.5003 19.2333 90.5702 19.2776 90.7292L19.7124 92.2866C19.7597 92.4561 19.7304 92.5557 19.6138 92.5882C19.5397 92.6089 19.4613 92.5737 19.3788 92.4825C19.2768 92.3625 19.1624 92.2803 19.0358 92.2357C18.8473 92.1741 18.4511 92.2276 17.8577 92.3932L15.6752 93.0025C15.2196 93.1296 14.9666 93.246 14.8919 93.3467C14.8431 93.4175 14.8227 93.5488 14.817 93.7331C14.8161 93.8933 14.7732 93.9852 14.6884 94.0088C14.5719 94.0414 14.4741 93.9773 14.3814 93.809C14.2409 93.5513 14.0793 93.2995 13.8888 93.0672C13.8393 93.0125 13.8109 92.9519 13.7961 92.8989C13.7577 92.7611 13.8217 92.6633 13.9913 92.616L14.6905 92.4208C14.7117 92.4149 14.7194 92.4013 14.7164 92.3907C14.7134 92.3801 14.6999 92.3725 14.6622 92.3602C13.9188 92.1109 13.4412 91.6275 13.2401 90.907C13.0242 90.1336 13.2789 89.4915 13.7678 89.1152C13.8178 89.0898 13.8089 89.058 13.7441 89.0304C12.9871 88.7735 12.5125 88.3007 12.3144 87.5908C12.1369 86.9551 12.2581 86.4074 12.6856 85.934C12.9214 85.674 13.3427 85.465 13.936 85.2994L15.7372 84.7966C16.3199 84.634 16.6759 84.4775 16.8264 84.3213C16.8964 84.2446 16.9546 84.1256 16.995 83.943Z" fill="black"/>
<path d="M13.5945 82.3776C13.6599 82.3689 13.6883 82.3319 13.6797 82.2665L13.4225 80.3143C13.3291 79.6055 13.1267 79.3326 12.5923 79.403C12.2979 79.4418 12.041 79.5977 11.8232 79.8815C11.604 80.1545 11.5272 80.4975 11.5803 80.901C11.6292 81.2718 11.7922 81.5832 12.0681 81.8242C12.6212 82.3172 13.2128 82.4278 13.5945 82.3776ZM15.4974 78.2103C15.7373 78.1787 16.0648 78.3907 16.4705 78.8587C16.81 79.2467 17.0165 79.7188 17.0883 80.2641C17.186 81.0057 17.0062 81.6618 16.5583 82.2201C16.0995 82.7798 15.4549 83.1088 14.6152 83.2194C13.7754 83.3301 13.0212 83.1632 12.332 82.7325C11.6428 82.3018 11.2389 81.6783 11.1326 80.8712C11.0507 80.2496 11.178 79.7003 11.5269 79.2327C11.8773 78.776 12.308 78.5084 12.8206 78.4409C13.3877 78.3662 13.6346 78.5556 13.7165 79.1772L14.1231 82.2635C14.1331 82.3399 14.1716 82.3792 14.248 82.3691C14.9241 82.28 15.4507 82.0664 15.8169 81.7297C16.3228 81.2747 16.5417 80.7466 16.4626 80.1468C16.4152 79.7869 16.2834 79.4603 16.0578 79.1794C15.8597 78.9392 15.5773 78.7323 15.4292 78.6187C15.207 78.4482 15.312 78.2347 15.4974 78.2103Z" fill="black"/>
<path d="M16.023 71.4442C16.133 71.4416 16.212 71.5278 16.2601 71.7027C16.333 71.9981 16.4273 72.271 16.5429 72.5104C16.5889 72.5974 16.6127 72.6738 16.6142 72.7398C16.6175 72.8828 16.5313 72.9618 16.3444 72.9661L15.6296 72.9827C15.5856 72.9837 15.5863 73.0167 15.6311 73.0487C16.2223 73.3981 16.6338 74.0597 16.6514 74.8185C16.6649 75.4014 16.4883 75.8566 16.1323 76.1619C15.798 76.4557 15.2625 76.6112 14.5257 76.6282L12.3923 76.6776C11.9964 76.6868 11.7445 76.7367 11.6473 76.8159C11.5826 76.8724 11.5301 76.9837 11.4795 77.1719C11.439 77.3269 11.3748 77.4054 11.2869 77.4074C11.1659 77.4102 11.0759 77.3243 11.0388 77.1491C10.978 76.8974 10.8834 76.6136 10.7555 76.3194C10.7208 76.2432 10.708 76.1665 10.7067 76.1115C10.7034 75.9686 10.7896 75.8895 10.9655 75.8855L14.5176 75.8032C15.4083 75.7826 15.9823 75.3842 15.9627 74.5374C15.9532 74.1305 15.8134 73.7926 15.5433 73.5348C15.3295 73.3307 15.0183 73.1949 14.6096 73.1273C14.201 73.0598 13.5181 73.0316 12.5834 73.0532C12.0115 73.0665 11.6716 73.1184 11.5635 73.1979C11.4988 73.2544 11.4463 73.3657 11.3957 73.5539C11.3552 73.7089 11.291 73.7874 11.1921 73.7897C11.0711 73.7925 10.9921 73.7063 10.955 73.5311C10.8944 73.2904 10.8001 73.0175 10.6717 72.7014C10.637 72.6252 10.6244 72.5595 10.6232 72.5045C10.6196 72.3505 10.7058 72.2715 10.8817 72.2674L14.9177 72.174C15.3135 72.1648 15.5655 72.1149 15.6626 72.0357C15.7384 71.9789 15.7905 71.8567 15.8304 71.6797C15.8709 71.5247 15.9351 71.4462 16.023 71.4442Z" fill="black"/>
<path d="M16.4444 62.7666C17.0013 63.2331 17.326 64.0892 17.2044 64.9607C17.0903 65.7778 16.6847 66.3765 15.9765 66.7552C15.4842 67.0197 14.8949 67.1041 14.2086 67.0083C13.1627 66.8623 12.1544 66.2884 11.649 65.3738C11.3548 64.8551 11.2472 64.2737 11.3369 63.6309C11.4023 63.1624 11.6136 62.6033 11.91 62.3892C12.059 62.2767 12.3187 62.2463 12.6782 62.2965C13.0922 62.3543 13.287 62.4703 13.2627 62.6446C13.2977 62.8717 12.8264 62.9058 12.55 63.0561C12.1089 63.2722 11.8611 63.6152 11.7972 64.0728C11.7364 64.5086 11.8699 64.9048 12.1977 65.2616C12.6021 65.7067 13.2175 65.9925 14.0455 66.1081C14.6229 66.1887 15.1298 66.1373 15.5555 65.9523C16.1582 65.6922 16.499 65.2399 16.5903 64.5863C16.6648 64.0524 16.5123 63.5536 16.1406 63.113C16.0266 62.9749 15.9749 62.8677 15.9855 62.7914C16.0023 62.6716 16.0768 62.6154 16.2075 62.6336C16.2729 62.6427 16.3555 62.6876 16.4444 62.7666Z" fill="black"/>
<path d="M18.4743 56.3414C18.581 56.3681 18.6343 56.4722 18.6342 56.6536C18.626 56.9578 18.6444 57.2459 18.6923 57.5074C18.7136 57.6035 18.7162 57.6835 18.7001 57.7475C18.6654 57.8862 18.5613 57.9395 18.3799 57.894L17.6864 57.7202C17.6437 57.7095 17.6356 57.7415 17.6703 57.7842C18.1475 58.2781 18.3685 59.0252 18.1839 59.7614C18.0421 60.3269 17.751 60.7189 17.3267 60.9187C16.9264 61.1132 16.3688 61.1208 15.6539 60.9416L13.584 60.4226C13.1999 60.3263 12.9438 60.3075 12.829 60.3581C12.7516 60.3954 12.6715 60.4887 12.5727 60.6567C12.4926 60.7954 12.4098 60.8541 12.3245 60.8327C12.2071 60.8032 12.1431 60.6965 12.1539 60.5177C12.1621 60.2589 12.1463 59.9601 12.1012 59.6426C12.0879 59.5599 12.0959 59.4825 12.1093 59.4292C12.1441 59.2905 12.2482 59.2372 12.4189 59.28L15.8652 60.1441C16.7295 60.3607 17.3886 60.1291 17.5946 59.3075C17.6936 58.9127 17.6484 58.5499 17.4566 58.2296C17.3047 57.976 17.0407 57.7624 16.6646 57.5888C16.2886 57.4151 15.6378 57.2066 14.7308 56.9792C14.176 56.8401 13.8345 56.7998 13.7091 56.8478C13.6317 56.8851 13.5516 56.9784 13.4528 57.1464C13.3727 57.2851 13.2899 57.3437 13.1939 57.3196C13.0765 57.2902 13.0232 57.1861 13.034 57.0074C13.0395 56.7593 13.0211 56.4711 12.9813 56.1323C12.968 56.0496 12.9734 55.9829 12.9867 55.9295C13.0242 55.7801 13.1283 55.7268 13.299 55.7696L17.2148 56.7514C17.5989 56.8477 17.855 56.8666 17.9698 56.8159C18.0578 56.7813 18.1406 56.6773 18.2261 56.5173C18.3062 56.3786 18.389 56.32 18.4743 56.3414Z" fill="black"/>
<path d="M14.8347 50.4268C14.9846 50.0131 15.3276 49.9385 15.6482 50.0547C15.9274 50.1559 16.0281 50.2977 15.9569 50.4942C15.8969 50.6596 15.586 50.8395 15.5073 51.0567C15.4099 51.3255 15.4826 51.6093 15.7216 51.9182C15.9107 52.1389 16.1666 52.3369 16.4891 52.5123C16.8154 52.6773 17.3663 52.9004 18.1523 53.1853C18.7004 53.3839 19.0915 53.4671 19.3048 53.4274C19.3921 53.4123 19.502 53.3351 19.6513 53.2137C19.7405 53.1291 19.8213 53.0998 19.904 53.1298C20.0178 53.1711 20.0395 53.2725 19.9833 53.4277L19.4286 54.9582C19.3724 55.1134 19.2907 55.1774 19.1769 55.1361C19.1045 55.1099 19.0509 55.0319 19.0366 54.9098C19.0205 54.7284 18.9686 54.5809 18.8736 54.488C18.7315 54.3312 18.3986 54.1521 17.8712 53.9609C17.23 53.7285 15.8095 53.2254 15.8198 53.2291C15.3337 53.053 15.0254 52.9997 14.8883 53.0553C14.8075 53.0845 14.7042 53.1758 14.5963 53.3122C14.4883 53.4486 14.4001 53.4985 14.3173 53.4685C14.1932 53.4235 14.1603 53.3531 14.1835 53.1275C14.2143 52.8812 14.2243 52.6275 14.2137 52.3662C14.2061 52.2582 14.2116 52.1783 14.2379 52.1059C14.2866 51.9714 14.3956 51.929 14.561 51.989L15.3987 52.2926C15.4194 52.3001 15.4335 52.2935 15.4372 52.2832C15.441 52.2728 15.4344 52.2587 15.4071 52.2371C15.2039 52.0231 15.0372 51.7404 14.8931 51.3956C14.7527 51.0405 14.7298 50.7163 14.8347 50.4268Z" fill="black"/>
<path d="M16.8535 45.798C17.0369 45.3981 17.3848 45.3519 17.6947 45.494C17.9647 45.6178 18.0534 45.7674 17.9663 45.9574C17.8929 46.1174 17.5683 46.2711 17.472 46.4811C17.3528 46.741 17.4019 47.0298 17.6148 47.3573C17.7851 47.5928 18.0238 47.8111 18.3309 48.0124C18.6425 48.2037 19.1733 48.4713 19.9332 48.8198C20.4631 49.0628 20.846 49.1779 21.0618 49.1559C21.1501 49.148 21.266 49.0801 21.4248 48.9714C21.5206 48.8943 21.6035 48.8718 21.6835 48.9085C21.7935 48.959 21.8068 49.0619 21.738 49.2119L21.0594 50.6917C20.9906 50.8417 20.9039 50.8987 20.794 50.8483C20.724 50.8162 20.6769 50.7341 20.6728 50.6112C20.6716 50.4291 20.632 50.2778 20.5449 50.1774C20.4162 50.0095 20.0992 49.8036 19.5893 49.5697C18.9693 49.2854 17.5949 48.6673 17.6049 48.6719C17.135 48.4563 16.8321 48.3779 16.6908 48.4221C16.6079 48.4446 16.4975 48.527 16.3787 48.6541C16.2599 48.7812 16.1678 48.8236 16.0879 48.7869C15.9679 48.7319 15.9408 48.659 15.9825 48.4361C16.0334 48.1932 16.0643 47.9411 16.0752 47.6799C16.0764 47.5716 16.0885 47.4924 16.1206 47.4224C16.1802 47.2924 16.2923 47.2591 16.4523 47.3325L17.2622 47.7039C17.2822 47.7131 17.2968 47.7076 17.3014 47.6976C17.306 47.6877 17.3006 47.6731 17.2751 47.6493C17.0902 47.4193 16.9473 47.1238 16.832 46.7684C16.7213 46.403 16.7251 46.078 16.8535 45.798Z" fill="black"/>
<path d="M23.7279 44.5641C23.839 44.5001 23.9234 44.4841 23.9715 44.5108C24.0772 44.5697 24.0921 44.6787 24.0119 44.8228L23.2149 46.255C23.1347 46.3992 23.0342 46.444 22.9285 46.3852C22.8708 46.3531 22.8399 46.2729 22.8453 46.1501C22.8487 45.9631 22.8199 45.8338 22.7698 45.743C22.6791 45.5666 22.3694 45.3313 21.8215 45.0265L19.63 43.807C19.3512 43.6519 19.1621 43.5844 19.0478 43.6089C18.9484 43.6291 18.8373 43.6932 18.7282 43.8213C18.6095 43.9441 18.5091 43.9889 18.4322 43.9461C18.3264 43.8873 18.2998 43.8221 18.3747 43.5743C18.4626 43.2581 18.5247 42.9654 18.557 42.6812C18.5709 42.5882 18.5838 42.5199 18.5998 42.491C18.664 42.3757 18.773 42.3608 18.9268 42.4464L22.2333 44.2863C22.7716 44.5859 23.1444 44.7304 23.3421 44.7145C23.4553 44.7145 23.5857 44.6612 23.7279 44.5641ZM17.3297 40.7016L17.4415 42.7403C17.4564 42.8492 17.4317 42.9614 17.3622 43.0864L17.1215 43.5189C17.1001 43.5574 17.0702 43.5659 17.0414 43.5498C17.0317 43.5445 17.0136 43.5092 17.0062 43.4547L16.7146 41.807C16.6815 41.6628 16.7073 41.526 16.7875 41.3818L17.1726 40.6898C17.21 40.6225 17.2453 40.6044 17.2838 40.6258C17.3126 40.6418 17.3265 40.6621 17.3297 40.7016Z" fill="black"/>
<path d="M26.3966 39.3783C26.6952 40.0406 26.6152 40.9527 26.1266 41.6846C25.6686 42.3707 25.0429 42.7334 24.2405 42.7664C23.6822 42.7904 23.1148 42.6101 22.5385 42.2253C21.6602 41.6389 21.0019 40.6836 20.9446 39.6402C20.9053 39.0452 21.0613 38.4748 21.4216 37.9351C21.6843 37.5417 22.1177 37.1301 22.4778 37.0663C22.6609 37.0298 22.9079 37.1153 23.2098 37.3169C23.5575 37.549 23.6824 37.7382 23.5847 37.8846C23.5175 38.1042 23.0782 37.93 22.764 37.9451C22.2728 37.9478 21.9005 38.1489 21.6439 38.5332C21.3996 38.8991 21.3475 39.314 21.4875 39.7778C21.658 40.3545 22.0878 40.8796 22.7831 41.3438C23.268 41.6675 23.7469 41.8417 24.2106 41.8603C24.8665 41.8882 25.3701 41.6292 25.7365 41.0803C26.0358 40.632 26.1155 40.1164 25.9724 39.558C25.9298 39.3841 25.9299 39.2651 25.9727 39.2011C26.0399 39.1005 26.1314 39.0822 26.2412 39.1555C26.2961 39.1922 26.3509 39.2685 26.3966 39.3783Z" fill="black"/>
<path d="M31.1909 34.262C31.2752 34.3327 31.2776 34.4496 31.1982 34.6127C31.0578 34.8827 30.9485 35.1499 30.8772 35.406C30.8543 35.5017 30.8217 35.5748 30.7793 35.6254C30.6873 35.7349 30.5704 35.7373 30.4272 35.6171L29.8795 35.1575C29.8458 35.1292 29.8246 35.1545 29.837 35.2081C30.0503 35.8609 29.9223 36.6294 29.4344 37.2109C29.0597 37.6575 28.6265 37.8827 28.1576 37.8769C27.7125 37.8768 27.2077 37.6399 26.6431 37.1661L25.0084 35.7944C24.7051 35.5398 24.483 35.4109 24.3576 35.4063C24.2717 35.406 24.1589 35.4549 23.9966 35.5628C23.8639 35.6525 23.7638 35.669 23.6964 35.6124C23.6037 35.5347 23.5929 35.4107 23.6807 35.2547C23.8012 35.0255 23.9176 34.7498 24.0159 34.4446C24.0401 34.3644 24.0811 34.2983 24.1165 34.2562C24.2084 34.1466 24.3253 34.1442 24.4602 34.2573L27.1819 36.5412C27.8644 37.114 28.5585 37.1938 29.1029 36.545C29.3645 36.2332 29.4826 35.8871 29.4501 35.5152C29.4243 35.2207 29.2803 34.9132 29.018 34.5926C28.7558 34.272 28.2616 33.7999 27.5454 33.1989C27.1072 32.8312 26.8177 32.6457 26.6839 32.634C26.598 32.6337 26.4852 32.6826 26.3229 32.7905C26.1902 32.8802 26.0901 32.8967 26.0143 32.8331C25.9216 32.7553 25.9192 32.6384 26.007 32.4824C26.1204 32.2617 26.2298 31.9944 26.3422 31.6723C26.3664 31.5921 26.4004 31.5345 26.4357 31.4923C26.5347 31.3744 26.6516 31.3719 26.7865 31.4851L29.8789 34.0801C30.1823 34.3346 30.4044 34.4635 30.5297 34.4682C30.624 34.4756 30.7439 34.4182 30.8908 34.3117C31.0235 34.222 31.1235 34.2054 31.1909 34.262Z" fill="black"/>
<path d="M33.5325 32.0432C33.657 32.0125 33.7426 32.0206 33.7813 32.0596C33.8666 32.1455 33.8506 32.2543 33.7335 32.3706L32.5704 33.5253C32.4533 33.6416 32.3443 33.6567 32.2591 33.5709C32.2126 33.524 32.2051 33.4384 32.2444 33.3219C32.2995 33.1432 32.3078 33.011 32.2848 32.9098C32.2466 32.7152 32.0144 32.4032 31.5727 31.9583L28.1472 28.5079C27.9225 28.2815 27.7596 28.1642 27.6429 28.156C27.5418 28.1479 27.4173 28.1785 27.2769 28.2713C27.1288 28.3564 27.0199 28.3715 26.9579 28.3091C26.8726 28.2232 26.8651 28.1532 27.0059 27.9359C27.178 27.6565 27.319 27.3926 27.4289 27.1285C27.4681 27.0431 27.4994 26.981 27.5228 26.9577C27.6165 26.8647 27.7253 26.8807 27.8493 27.0056L32.1738 31.3615C32.6078 31.7987 32.9258 32.041 33.1201 32.0806C33.2289 32.1121 33.3689 32.097 33.5325 32.0432Z" fill="black"/>
<path d="M36.721 26.345C36.3565 25.9042 35.9437 25.5603 35.4743 25.3205C34.9978 25.0722 34.553 24.9831 34.1232 25.0674C33.837 25.1184 33.6 25.2287 33.4135 25.3829C33.1846 25.5722 33.0133 25.8138 32.9149 26.1092C32.7109 26.7774 32.8956 27.4668 33.4774 28.1704C33.975 28.7724 34.5452 29.1858 35.1895 29.3953C35.8337 29.6049 36.372 29.5309 36.8214 29.1594C37.2368 28.8159 37.4202 28.3646 37.3787 27.8137C37.3397 27.3178 37.1205 26.8282 36.721 26.345ZM33.2179 24.9737C33.8707 24.434 34.563 24.2184 35.2851 24.3494C36.0071 24.4803 36.6422 24.8687 37.1889 25.5299C37.7286 26.1827 37.9892 26.895 37.9623 27.6737C37.9438 28.4454 37.6329 29.0879 37.031 29.5856C36.3951 30.1113 35.7098 30.3354 34.9848 30.2354C34.2599 30.1354 33.6178 29.7386 33.043 29.0434C32.5033 28.3906 32.2427 27.6784 32.2696 26.8996C32.2966 26.1209 32.6075 25.4784 33.2179 24.9737Z" fill="black"/>
<path d="M42.6285 22.527C42.4777 22.6177 42.206 22.614 41.8192 22.5256C41.4362 22.422 41.1947 22.2976 41.104 22.1468C41.0134 21.9959 41.017 21.7242 41.1112 21.3469C41.2147 20.9639 41.3391 20.7224 41.49 20.6317C41.6503 20.5354 41.9219 20.5391 42.2993 20.6332C42.6766 20.7273 42.9182 20.8517 43.0088 21.0026C43.0994 21.1534 43.0958 21.4251 43.0073 21.8119C42.9132 22.1892 42.7888 22.4308 42.6285 22.527Z" fill="black"/>
<path d="M57.4617 16.2601C57.6263 16.7618 57.6065 17.2661 57.3045 17.863C57.0025 18.4599 56.1997 19.0474 54.9559 19.4555L52.9178 20.1242C52.7401 20.1825 52.6255 20.1506 52.5878 20.0357C52.5706 19.9834 52.6023 19.9035 52.6933 19.7927C52.8017 19.6645 52.8579 19.5534 52.8793 19.4422C52.9219 19.2546 52.8471 18.8855 52.6654 18.3315L51.2869 14.1299C51.1463 13.7014 51.0433 13.4226 50.9708 13.3075C50.9087 13.1889 50.8047 13.1188 50.6657 13.0834C50.4851 13.0269 50.3179 13.0817 50.2664 12.925C50.2287 12.81 50.2917 12.7199 50.459 12.665L52.4971 11.9963C52.9047 11.8626 53.2112 11.7736 53.4133 11.7189C53.8348 11.5922 54.5203 11.5293 55.0065 11.7056C55.4892 11.8713 55.8042 12.1963 55.9654 12.6876C56.1231 13.1683 56.0862 13.6204 55.8617 14.0298C55.6371 14.4392 55.3296 14.7369 54.9321 14.9368C54.8832 14.9644 54.8587 14.9956 54.869 15.0269C54.8793 15.0583 54.9071 15.0723 54.9593 15.0552C56.1086 14.7823 57.1222 15.2254 57.4617 16.2601ZM56.5698 16.5412C56.1961 15.4019 55.2613 15.1992 53.7667 15.6896C53.5054 15.7753 52.934 15.9744 52.934 15.9744C52.8399 16.0052 52.8118 16.0607 52.8427 16.1548L53.4633 18.0466C53.6794 18.7051 53.8376 19.0815 53.9416 19.1516C54.0456 19.2216 54.2579 19.1983 54.5819 19.092L54.8851 18.9925C56.3797 18.5022 56.9436 17.6804 56.5698 16.5412ZM51.7899 12.9461L52.5992 15.4127C52.6369 15.5277 52.7168 15.5594 52.8422 15.5182L53.4902 15.3056C54.9117 14.8393 55.4544 14.094 55.1217 13.0801C54.9606 12.5889 54.6349 12.3021 54.3188 12.2206C54.1625 12.1677 53.9747 12.1598 53.7485 12.1762C53.3032 12.1949 53.0523 12.2772 52.6238 12.4178C52.5715 12.435 52.4566 12.4727 52.2719 12.5449L51.927 12.658C51.7911 12.7026 51.7419 12.7998 51.7899 12.9461Z" fill="black"/>
<path d="M61.6144 14.5734L61.5798 14.4121C61.5728 14.3799 61.5598 14.3714 61.5382 14.376C61.5275 14.3784 61.5083 14.3937 61.4998 14.4068C61.3663 14.5705 61.0998 14.7965 60.7004 15.0848C60.2988 15.3624 60.03 15.5777 59.881 15.7222C59.547 16.0527 59.4204 16.4062 59.5059 16.8041C59.6238 17.3526 60.0849 17.6136 60.6334 17.4957C61.1388 17.3871 61.5819 16.9881 61.7283 16.3604C61.8241 15.9685 61.7854 15.3693 61.6144 14.5734ZM63.3872 16.6453C63.4839 16.6245 63.5493 16.6667 63.5724 16.7743C63.6278 17.0324 63.3699 17.4028 63.015 17.4791C62.5956 17.5692 62.2966 17.3296 62.118 16.7605C62.1111 16.7282 62.098 16.7197 62.0873 16.7221C62.0765 16.7244 62.0681 16.7374 62.0535 16.7743C61.8295 17.4075 61.2297 17.8626 60.5414 18.0105C60.0897 18.1076 59.6748 18.0617 59.2883 17.886C58.9018 17.7102 58.6688 17.4115 58.5787 16.9921C58.4817 16.5404 58.6159 16.1177 58.9729 15.7373C59.1641 15.5274 59.4652 15.3052 59.8822 15.0469C60.2992 14.7885 60.5581 14.6316 60.6648 14.5524C61.207 14.1434 61.4249 13.6916 61.321 13.2076C61.2008 12.6484 60.7451 12.3075 60.132 12.4392C59.7986 12.5108 59.5398 12.6677 59.3364 12.9252C59.0692 13.2526 58.9066 13.8051 58.846 13.9419C58.8046 14.0633 58.7408 14.1332 58.6548 14.1517C58.4935 14.1864 58.3835 14.0412 58.3165 13.7293C58.238 13.3637 58.2363 13.094 58.3199 12.9073C58.4228 12.7052 58.6616 12.5076 59.0387 12.3253C59.2807 12.1946 59.5641 12.0999 59.8975 12.0283C60.5535 11.8874 61.1006 11.9723 61.541 12.294C61.903 12.565 62.1714 13.0812 62.3401 13.8662C62.3793 14.0491 62.4333 14.3525 62.5126 14.7743C62.592 15.196 62.659 15.5079 62.7052 15.723C62.7768 16.0564 62.7999 16.1639 62.8853 16.4043C62.9815 16.6424 63.0907 16.7315 63.2305 16.7015C63.2627 16.6945 63.3549 16.6522 63.3872 16.6453Z" fill="black"/>
<path d="M65.6651 9.36722C65.6805 9.48723 65.6115 9.64029 65.4594 9.83731C65.3168 10.022 65.1862 10.1275 65.0662 10.143C64.9571 10.157 64.804 10.088 64.607 9.93587C64.4209 9.78236 64.3153 9.65176 64.3013 9.54266C64.2887 9.44447 64.3577 9.29141 64.4989 9.0958C64.651 8.89878 64.7816 8.79325 64.8907 8.77922C65.0107 8.76378 65.1638 8.83281 65.3499 8.98632C65.5455 9.12752 65.651 9.25812 65.6651 9.36722ZM66.8202 16.4497C66.9377 16.5011 67.0007 16.5596 67.0077 16.6141C67.0231 16.7342 66.9443 16.8108 66.7806 16.8319L65.155 17.041C64.9914 17.0621 64.8957 17.0078 64.8802 16.8878C64.8718 16.8224 64.9179 16.7499 65.02 16.6813C65.1724 16.573 65.2594 16.4731 65.3027 16.3788C65.3908 16.2011 65.3962 15.8122 65.3162 15.1903L64.9962 12.7028C64.9555 12.3864 64.8975 12.1943 64.8099 12.1168C64.7346 12.0489 64.6171 11.9974 64.4492 11.9858C64.28 11.9632 64.1843 11.9089 64.173 11.8217C64.1576 11.7016 64.1942 11.6415 64.4381 11.5546C64.7447 11.4376 65.0171 11.3138 65.265 11.171C65.348 11.1271 65.4107 11.0968 65.4434 11.0926C65.5743 11.0758 65.651 11.1546 65.6735 11.3292L66.1563 15.0823C66.2349 15.6932 66.34 16.079 66.4701 16.2286C66.5373 16.3198 66.6576 16.393 66.8202 16.4497Z" fill="black"/>
<path d="M73.4016 15.8789C73.6389 16.0463 73.9824 16.1108 73.9323 16.2447C73.9367 16.3656 73.8508 16.4238 73.6749 16.4302L72.2349 16.4829C72.037 16.4901 71.9361 16.4388 71.9321 16.3289C71.9296 16.2629 71.9822 16.195 72.0901 16.136C72.198 16.077 72.2506 16.009 72.2486 15.9541C72.2466 15.8991 72.2222 15.8339 72.1644 15.759C71.967 15.48 71.5174 14.9241 70.8041 14.0806C70.7813 14.0594 70.7589 14.0492 70.7479 14.0496C70.7369 14.05 70.7264 14.0614 70.7052 14.0842C70.2566 14.7611 69.9555 15.2564 69.8019 15.5702C69.7298 15.705 69.7008 15.8161 69.7036 15.893C69.7077 16.003 69.7772 16.0995 69.9229 16.1712C70.0687 16.2429 70.1484 16.3171 70.1504 16.372C70.1549 16.4929 70.0693 16.5621 69.8825 16.569L68.4754 16.6204C68.2775 16.6277 68.1762 16.5653 68.1718 16.4444C68.1124 16.3255 68.4157 16.1933 68.5127 16.1347C68.7595 15.9606 69.0352 15.6753 69.3395 15.2679C69.5917 14.9395 69.9469 14.4202 70.4057 13.7209C70.4469 13.6424 70.4464 13.6314 70.4005 13.578L69.3983 12.3598C68.9726 11.8581 68.6638 11.5391 68.4941 11.4133C68.2454 11.2352 68.0031 11.2331 67.9971 11.0682C67.9927 10.9473 68.0786 10.8891 68.2545 10.8827L69.6835 10.8304C69.8704 10.8236 69.9604 10.8753 69.9644 10.9852C69.9688 11.1062 69.6976 11.2151 69.7024 11.347C69.7045 11.402 69.7407 11.4887 69.8106 11.5963C70.0312 11.9074 70.4694 12.4528 71.1245 13.2103C71.1701 13.2527 71.1921 13.2519 71.234 13.1953C71.7237 12.4399 72.024 11.9226 72.1349 11.6433C72.1753 11.5428 72.194 11.454 72.192 11.3991C72.1876 11.2782 72.1074 11.193 71.9621 11.1323C71.8168 11.0716 71.7484 11.008 71.746 10.9421C71.7416 10.8212 71.8381 10.7516 72.025 10.7447L73.432 10.6933C73.6189 10.6864 73.7199 10.7378 73.7243 10.8587C73.7189 11.013 73.5446 11.0634 73.3834 11.1684C73.1789 11.2969 72.9036 11.5932 72.5785 12.0344C72.2534 12.4756 71.8982 12.9949 71.5119 13.5704C71.4708 13.6489 71.47 13.627 71.5168 13.7023L72.5198 14.9425C72.9458 15.4552 73.2323 15.764 73.4016 15.8789Z" fill="black"/>
<path d="M75.8907 12.9227C75.8861 12.9885 75.9167 13.0237 75.9825 13.0284L77.9466 13.1667C78.6599 13.217 78.9677 13.0733 79.0056 12.5356C79.0265 12.2393 78.9251 11.9565 78.6905 11.6863C78.4669 11.417 78.1462 11.2731 77.7402 11.2445C77.3671 11.2182 77.0294 11.3157 76.7381 11.5378C76.1445 11.9812 75.9177 12.5386 75.8907 12.9227ZM79.5933 15.6205C79.5763 15.8619 79.303 16.1404 78.7633 16.4442C78.3153 16.6994 77.8115 16.8072 77.2628 16.7686C76.5167 16.716 75.9098 16.4086 75.4523 15.8581C74.9957 15.2966 74.8022 14.5993 74.8617 13.7544C74.9212 12.9095 75.2356 12.2038 75.7954 11.6147C76.3551 11.0256 77.0469 10.7545 77.8589 10.8117C78.4843 10.8558 78.9971 11.0904 79.3855 11.5258C79.7629 11.9604 79.9389 12.4359 79.9026 12.9516C79.8624 13.5222 79.6275 13.7262 79.002 13.6822L75.8967 13.4634C75.8199 13.458 75.7737 13.4878 75.7683 13.5646C75.7204 14.245 75.8244 14.8036 76.081 15.2297C76.4257 15.8164 76.8994 16.1365 77.5029 16.179C77.865 16.2045 78.2113 16.1407 78.5317 15.9758C78.8066 15.8297 79.0658 15.5944 79.2067 15.472C79.4182 15.2884 79.6064 15.434 79.5933 15.6205Z" fill="black"/>
<path d="M92.2718 19.2836C92.3741 19.3684 92.4099 19.4465 92.3897 19.5208C92.358 19.6376 92.2587 19.6676 92.0888 19.6215L90.5284 19.1976C90.3585 19.1515 90.288 19.0754 90.3197 18.9586C90.3399 18.8843 90.4103 18.835 90.5309 18.8108C90.6968 18.7874 90.826 18.7313 90.9185 18.6425C91.0737 18.4909 91.2277 18.1337 91.3863 17.5499L91.8706 15.7665C92.0119 15.2463 91.9806 14.8161 91.7815 14.4999C91.624 14.2405 91.374 14.07 91.0449 13.9806C90.6627 13.8768 90.3068 13.9283 89.9906 14.1274C89.7553 14.2801 89.5472 14.5427 89.3932 14.8998C89.2392 15.2569 89.0315 15.8958 88.7749 16.8406C88.6221 17.4032 88.5713 17.7998 88.6362 18.0226C88.6662 18.1219 88.7387 18.2328 88.8749 18.361C88.9666 18.4429 89.0024 18.521 88.9822 18.5953C88.9505 18.7121 88.8511 18.7421 88.6813 18.6959L87.1208 18.2721C86.951 18.226 86.8805 18.1498 86.9122 18.0331C86.9324 17.9587 87.0027 17.9095 87.1339 17.8881C87.3027 17.8542 87.432 17.7981 87.511 17.717C87.6661 17.5653 87.8201 17.2082 87.9787 16.6244L88.4631 14.841C88.6246 14.2465 88.6067 13.8085 88.399 13.5241C88.2512 13.313 88.0272 13.1724 87.7406 13.0945C87.3585 12.9907 87.0054 13.0316 86.6679 13.2249C86.4086 13.3824 86.1792 13.6393 85.9982 14.0119C85.8172 14.3845 85.6124 15.0128 85.3673 15.9151C85.203 16.5202 85.1551 16.9061 85.218 17.0942C85.2481 17.1935 85.3311 17.3073 85.4567 17.4326C85.5484 17.5145 85.5842 17.5926 85.564 17.6669C85.5323 17.7836 85.433 17.8137 85.2737 17.7704L83.7133 17.3466C83.5434 17.3004 83.4729 17.2243 83.5046 17.1075C83.5248 17.0332 83.5952 16.9839 83.7158 16.9597C83.8711 16.9335 84.0003 16.8774 84.1034 16.7914C84.2528 16.661 84.4097 16.2933 84.5712 15.6988L85.1651 13.5121C85.2891 13.0556 85.3187 12.7787 85.2704 12.663C85.2346 12.5848 85.1322 12.5001 84.9768 12.4008C84.8397 12.318 84.7827 12.2341 84.8058 12.1492C84.8375 12.0324 84.9426 11.9812 85.1346 11.9878C85.4279 11.999 85.727 11.9891 86.0241 11.9444C86.0964 11.9298 86.163 11.9365 86.2161 11.9509C86.3541 11.9884 86.4053 12.0935 86.3592 12.2634L86.1689 12.964C86.1631 12.9852 86.1708 12.9987 86.1815 13.0016C86.1921 13.0045 86.2056 12.9968 86.2355 12.9707C86.8302 12.4597 87.4899 12.2969 88.2118 12.493C88.9867 12.7035 89.4079 13.251 89.4809 13.8636C89.4771 13.9195 89.5089 13.9282 89.5658 13.8866C90.174 13.3679 90.8231 13.2023 91.5344 13.3955C92.1713 13.5685 92.5798 13.953 92.7676 14.5625C92.8702 14.8981 92.834 15.367 92.6726 15.9615L92.1824 17.7661C92.0238 18.35 91.976 18.7359 92.0331 18.9452C92.0631 19.0446 92.1356 19.1554 92.2718 19.2836Z" fill="black"/>
<path d="M95.3574 17.1639C95.3313 17.2245 95.3486 17.2679 95.4092 17.294L97.2178 18.0724C97.8745 18.3551 98.2126 18.3209 98.4257 17.8258C98.5431 17.553 98.5406 17.2526 98.4083 16.9202C98.286 16.5921 98.0307 16.3505 97.6569 16.1896C97.3134 16.0418 96.9624 16.0224 96.6141 16.136C95.9075 16.3588 95.5096 16.8103 95.3574 17.1639ZM97.963 20.932C97.8673 21.1542 97.5175 21.327 96.9078 21.4359C96.4007 21.529 95.8895 21.4646 95.3843 21.2472C94.6972 20.9515 94.2257 20.4611 93.9754 19.7905C93.7295 19.1099 93.7768 18.3877 94.1116 17.6097C94.4465 16.8317 94.976 16.2693 95.6988 15.8977C96.4215 15.5262 97.164 15.4984 97.9117 15.8203C98.4876 16.0681 98.8943 16.4587 99.1173 16.9978C99.3303 17.5326 99.3396 18.0396 99.1352 18.5145C98.9091 19.0399 98.62 19.155 98.0441 18.9071L95.1847 17.6764C95.114 17.646 95.0605 17.6589 95.0301 17.7296C94.7605 18.356 94.6744 18.9178 94.7762 19.4047C94.908 20.0722 95.2496 20.5306 95.8054 20.7698C96.1388 20.9133 96.4868 20.9672 96.8436 20.9172C97.1514 20.87 97.4737 20.7333 97.6471 20.6643C97.9072 20.5607 98.0369 20.7602 97.963 20.932Z" fill="black"/>
<path d="M103.506 24.8473C103.452 24.9431 103.338 24.9668 103.163 24.9186C102.872 24.8299 102.589 24.7713 102.324 24.748C102.226 24.743 102.148 24.7243 102.091 24.6918C101.966 24.6215 101.942 24.507 102.034 24.3442L102.386 23.7217C102.408 23.6834 102.379 23.6671 102.329 23.6892C101.726 24.0182 100.947 24.0329 100.286 23.6596C99.7783 23.3728 99.4776 22.9881 99.3976 22.526C99.3163 22.0884 99.4569 21.5488 99.8195 20.9071L100.869 19.0492C101.064 18.7044 101.15 18.4625 101.132 18.3384C101.116 18.2539 101.048 18.1519 100.912 18.012C100.799 17.898 100.765 17.8026 100.808 17.726C100.868 17.6207 100.988 17.5873 101.157 17.6452C101.404 17.7217 101.697 17.7858 102.015 17.8266C102.098 17.8357 102.171 17.864 102.218 17.8911C102.343 17.9614 102.367 18.0759 102.28 18.2291L100.532 21.3225C100.094 22.0983 100.142 22.7953 100.88 23.2119C101.234 23.4121 101.596 23.4649 101.956 23.3649C102.241 23.2858 102.517 23.088 102.784 22.7715C103.051 22.455 103.425 21.8829 103.885 21.0688C104.166 20.5708 104.296 20.2523 104.283 20.1186C104.267 20.0341 104.199 19.9321 104.063 19.7922C103.95 19.6782 103.916 19.5828 103.964 19.4966C104.024 19.3913 104.138 19.3675 104.308 19.4254C104.546 19.4965 104.828 19.5552 105.166 19.6068C105.249 19.6159 105.312 19.6388 105.36 19.6658C105.494 19.7416 105.518 19.8561 105.431 20.0093L103.445 23.5241C103.25 23.8689 103.164 24.1108 103.183 24.2349C103.193 24.329 103.271 24.4364 103.402 24.5613C103.515 24.6753 103.549 24.7707 103.506 24.8473Z" fill="black"/>
<path d="M110.745 29.6516C110.059 29.8911 109.157 29.7318 108.471 29.1812C107.827 28.6649 107.521 28.01 107.558 27.2078C107.583 26.6495 107.812 26.1001 108.246 25.5595C108.906 24.7358 109.916 24.1634 110.96 24.1975C111.556 24.2103 112.111 24.4155 112.617 24.8216C112.986 25.1176 113.358 25.5854 113.39 25.9497C113.411 26.1352 113.304 26.3739 113.077 26.657C112.815 26.983 112.616 27.091 112.478 26.9809C112.265 26.8947 112.477 26.4724 112.49 26.158C112.53 25.6685 112.362 25.28 112.002 24.9909C111.659 24.7155 111.25 24.6274 110.775 24.7263C110.186 24.8458 109.626 25.2281 109.102 25.8802C108.738 26.335 108.522 26.7968 108.463 27.2571C108.378 27.9081 108.592 28.4323 109.107 28.8453C109.527 29.1826 110.034 29.307 110.603 29.2133C110.78 29.1861 110.898 29.1965 110.958 29.2447C111.053 29.3204 111.063 29.4132 110.98 29.5162C110.939 29.5677 110.858 29.6156 110.745 29.6516Z" fill="black"/>
<path d="M115.225 34.6846C115.147 34.7626 115.031 34.7551 114.875 34.6621C114.618 34.4993 114.361 34.3677 114.112 34.2749C114.018 34.244 113.948 34.2053 113.901 34.1588C113.8 34.0579 113.808 33.9412 113.94 33.8086L114.444 33.3019C114.475 33.2707 114.452 33.2474 114.397 33.2553C113.729 33.4124 112.974 33.2197 112.436 32.6843C112.023 32.273 111.835 31.8223 111.88 31.3555C111.918 30.9121 112.197 30.4292 112.717 29.9068L114.223 28.3944C114.502 28.1137 114.649 27.9034 114.664 27.7789C114.672 27.6933 114.633 27.5767 114.539 27.4058C114.461 27.266 114.453 27.1649 114.515 27.1025C114.601 27.0168 114.725 27.0165 114.873 27.1172C115.091 27.2567 115.356 27.3961 115.652 27.5199C115.73 27.5508 115.792 27.5974 115.831 27.6362C115.932 27.737 115.925 27.8537 115.801 27.9785L113.294 30.4966C112.665 31.1281 112.527 31.8129 113.127 32.4105C113.416 32.6976 113.751 32.8446 114.124 32.8437C114.42 32.843 114.738 32.7256 115.08 32.4915C115.422 32.2574 115.934 31.805 116.593 31.1424C116.997 30.737 117.206 30.4643 117.229 30.332C117.237 30.2464 117.198 30.1298 117.104 29.9589C117.026 29.8191 117.018 29.718 117.088 29.6478C117.173 29.5621 117.29 29.5696 117.438 29.6703C117.648 29.8021 117.905 29.9337 118.217 30.073C118.294 30.1039 118.349 30.1427 118.388 30.1815C118.497 30.2901 118.49 30.4068 118.365 30.5316L115.518 33.3928C115.238 33.6734 115.091 33.8838 115.076 34.0083C115.06 34.1016 115.107 34.226 115.201 34.3813C115.279 34.5211 115.287 34.6222 115.225 34.6846Z" fill="black"/>
<path d="M122.169 34.586C122.448 34.9266 122.336 35.2594 122.072 35.4753C121.842 35.6633 121.669 35.6773 121.537 35.5155C121.425 35.3793 121.43 35.0201 121.284 34.8414C121.102 34.62 120.822 34.5372 120.434 34.5843C120.147 34.6339 119.846 34.7522 119.531 34.9395C119.222 35.1353 118.748 35.4944 118.101 36.0237C117.65 36.3929 117.378 36.6862 117.303 36.8897C117.271 36.9726 117.281 37.1064 117.309 37.2968C117.336 37.4168 117.32 37.5012 117.252 37.5569C117.158 37.6335 117.06 37.6002 116.955 37.4725L115.925 36.2124C115.82 36.0847 115.807 35.9818 115.901 35.9052C115.96 35.8564 116.055 35.8502 116.167 35.9005C116.331 35.9795 116.484 36.0105 116.613 35.9764C116.82 35.9346 117.144 35.7404 117.579 35.3852C118.106 34.9534 119.266 33.9906 119.257 33.9976C119.658 33.6702 119.861 33.4327 119.884 33.2864C119.9 33.202 119.874 33.0666 119.812 32.904C119.75 32.7415 119.753 32.6401 119.821 32.5844C119.923 32.5008 120 32.5086 120.182 32.644C120.378 32.7965 120.591 32.935 120.821 33.0597C120.918 33.1084 120.983 33.1541 121.032 33.2137C121.123 33.3244 121.103 33.4397 120.967 33.5511L120.277 34.1153C120.26 34.1292 120.259 34.1447 120.266 34.1532C120.273 34.1617 120.288 34.1633 120.321 34.1509C120.609 34.0859 120.937 34.0875 121.307 34.1401C121.684 34.2013 121.974 34.3476 122.169 34.586Z" fill="black"/>
<path d="M125.112 38.6898C125.361 39.0521 125.223 39.3746 124.942 39.5681C124.698 39.7366 124.524 39.7362 124.405 39.5641C124.305 39.4192 124.339 39.0617 124.208 38.8715C124.046 38.636 123.773 38.5304 123.383 38.5455C123.093 38.5713 122.783 38.6646 122.453 38.8253C122.129 38.995 121.628 39.314 120.939 39.7883C120.459 40.1192 120.164 40.3892 120.073 40.5858C120.034 40.6658 120.033 40.8 120.046 40.9921C120.063 41.1139 120.04 41.1966 119.967 41.2465C119.867 41.3152 119.772 41.2739 119.679 41.1381L118.755 39.7976C118.661 39.6617 118.657 39.558 118.756 39.4894C118.82 39.4457 118.914 39.4473 119.022 39.5066C119.179 39.5988 119.329 39.6423 119.46 39.6189C119.67 39.5943 120.009 39.4274 120.471 39.109C121.033 38.722 122.267 37.8578 122.258 37.8641C122.684 37.5707 122.906 37.3507 122.941 37.2067C122.964 37.124 122.95 36.9869 122.901 36.8198C122.853 36.6528 122.864 36.5519 122.936 36.502C123.045 36.4271 123.121 36.4411 123.291 36.5911C123.474 36.7591 123.675 36.9147 123.894 37.0578C123.986 37.1144 124.048 37.1653 124.091 37.2287C124.173 37.3464 124.144 37.4598 123.999 37.5596L123.265 38.0652C123.247 38.0777 123.244 38.093 123.251 38.1021C123.257 38.1111 123.272 38.1139 123.306 38.1043C123.598 38.0632 123.925 38.0917 124.289 38.1746C124.66 38.2665 124.937 38.4362 125.112 38.6898Z" fill="black"/>
<path d="M122.652 45.2268C122.651 45.355 122.621 45.4357 122.573 45.4633C122.469 45.524 122.368 45.481 122.285 45.3383L121.462 43.9205C121.38 43.7777 121.393 43.6685 121.497 43.6078C121.554 43.5747 121.639 43.5892 121.742 43.6567C121.901 43.7553 122.027 43.7968 122.13 43.8002C122.328 43.8126 122.689 43.667 123.231 43.3524L125.401 42.0941C125.677 41.9341 125.831 41.8062 125.869 41.6954C125.902 41.5997 125.904 41.4715 125.85 41.3122C125.805 41.1474 125.818 41.0381 125.894 40.994C125.999 40.9333 126.069 40.9437 126.243 41.135C126.47 41.3723 126.689 41.5756 126.917 41.7487C126.99 41.8083 127.042 41.8544 127.058 41.8829C127.125 41.9971 127.082 42.0983 126.929 42.1866L123.656 44.0851C123.123 44.3942 122.808 44.6404 122.721 44.8184C122.663 44.9156 122.642 45.0549 122.652 45.2268ZM129.246 41.7078L127.437 40.7603C127.336 40.7173 127.252 40.6387 127.181 40.515L126.932 40.0868C126.91 40.0487 126.918 40.0187 126.947 40.0021C126.956 39.9966 126.996 39.9991 127.046 40.0206L128.611 40.6136C128.752 40.6591 128.856 40.7512 128.939 40.8939L129.336 41.579C129.375 41.6456 129.373 41.6852 129.335 41.7073C129.306 41.7238 129.281 41.7254 129.246 41.7078Z" fill="black"/>
<path d="M125.741 50.174C125.019 50.0915 124.277 49.5559 123.898 48.7615C123.543 48.0167 123.552 47.2936 123.934 46.5874C124.199 46.0955 124.645 45.7005 125.27 45.4023C126.224 44.9481 127.381 44.8716 128.307 45.3566C128.838 45.6274 129.248 46.0534 129.528 46.6393C129.731 47.0663 129.863 47.6493 129.733 47.9913C129.671 48.1672 129.471 48.3357 129.143 48.4918C128.766 48.6716 128.539 48.6821 128.464 48.5232C128.309 48.353 128.684 48.0649 128.832 47.7873C129.081 47.3639 129.099 46.9411 128.9 46.524C128.711 46.1268 128.381 45.8697 127.911 45.7525C127.328 45.6037 126.657 45.7042 125.902 46.0638C125.376 46.3146 124.981 46.6368 124.728 47.0256C124.368 47.5748 124.333 48.1399 124.617 48.7357C124.849 49.2223 125.251 49.5547 125.804 49.7177C125.975 49.7701 126.077 49.8311 126.11 49.9006C126.162 50.0098 126.131 50.0978 126.012 50.1546C125.952 50.183 125.859 50.191 125.741 50.174Z" fill="black"/>
<path d="M127.682 56.9117C127.578 56.9479 127.476 56.8901 127.377 56.7384C127.217 56.4796 127.043 56.2489 126.86 56.0565C126.789 55.9879 126.743 55.9224 126.721 55.8601C126.674 55.7251 126.732 55.6234 126.909 55.5619L127.584 55.3267C127.625 55.3122 127.614 55.281 127.562 55.2644C126.892 55.1133 126.297 54.61 126.048 53.8932C125.856 53.3427 125.884 52.8552 126.129 52.4554C126.357 52.0731 126.819 51.7607 127.515 51.5183L129.53 50.8163C129.904 50.686 130.129 50.5612 130.197 50.4559C130.241 50.3823 130.257 50.2603 130.247 50.0656C130.238 49.9057 130.275 49.8113 130.358 49.7824C130.473 49.7426 130.585 49.7967 130.674 49.9521C130.809 50.1729 130.986 50.414 131.198 50.6547C131.254 50.7165 131.29 50.7856 131.308 50.8376C131.355 50.9726 131.298 51.0743 131.131 51.1322L127.776 52.301C126.935 52.5941 126.511 53.1495 126.789 53.9493C126.923 54.3337 127.16 54.6123 127.496 54.7747C127.762 54.9033 128.1 54.9371 128.51 54.8759C128.92 54.8147 129.578 54.6319 130.461 54.3243C131.001 54.1361 131.309 53.9824 131.387 53.8735C131.432 53.7999 131.447 53.6779 131.438 53.4832C131.429 53.3233 131.466 53.2289 131.559 53.1963C131.673 53.1565 131.775 53.2143 131.864 53.3696C131.996 53.5801 132.169 53.8108 132.388 54.0723C132.445 54.1341 132.477 54.1928 132.495 54.2448C132.546 54.3902 132.488 54.4918 132.322 54.5497L128.51 55.8778C128.136 56.0081 127.911 56.1328 127.843 56.2381C127.788 56.3154 127.776 56.4477 127.793 56.6284C127.802 56.7883 127.765 56.8828 127.682 56.9117Z" fill="black"/>
<path d="M128.389 60.059C128.351 60.1817 128.301 60.2511 128.247 60.2644C128.13 60.2936 128.045 60.2242 128.005 60.0641L127.608 58.4738C127.568 58.3137 127.611 58.2123 127.729 58.1831C127.793 58.1671 127.87 58.2045 127.95 58.2979C128.075 58.4367 128.184 58.5115 128.283 58.5436C128.47 58.6104 128.857 58.5706 129.465 58.419L134.183 57.2428C134.492 57.1657 134.676 57.0857 134.743 56.9897C134.802 56.9071 134.839 56.7844 134.831 56.6163C134.834 56.4455 134.877 56.3442 134.962 56.3229C135.08 56.2936 135.144 56.323 135.258 56.5552C135.41 56.8461 135.565 57.1023 135.735 57.3319C135.789 57.4093 135.826 57.468 135.834 57.5C135.866 57.6281 135.797 57.7134 135.626 57.756L129.67 59.2408C129.072 59.3898 128.701 59.539 128.568 59.6856C128.485 59.763 128.426 59.891 128.389 60.059Z" fill="black"/>
<path d="M131.651 65.7151C132.217 65.6277 132.723 65.4492 133.17 65.1686C133.627 64.8864 133.931 64.55 134.079 64.1376C134.182 63.8657 134.208 63.6056 134.171 63.3664C134.126 63.0729 134.006 62.802 133.803 62.5664C133.333 62.0491 132.646 61.8547 131.744 61.9943C130.972 62.1136 130.325 62.3918 129.815 62.838C129.305 63.2841 129.093 63.7844 129.182 64.3606C129.265 64.8932 129.559 65.2819 130.053 65.5282C130.499 65.7486 131.032 65.8109 131.651 65.7151ZM134.623 63.4079C134.752 64.2449 134.583 64.9501 134.101 65.5033C133.619 66.0565 132.96 66.4032 132.112 66.5343C131.275 66.6638 130.53 66.523 129.875 66.1012C129.221 65.6903 128.828 65.0943 128.709 64.3225C128.583 63.5072 128.741 62.8037 129.198 62.2321C129.655 61.6606 130.325 61.3121 131.216 61.1743C132.053 61.0448 132.799 61.1856 133.454 61.6074C134.109 62.0292 134.502 62.6252 134.623 63.4079Z" fill="black"/>
<path d="M131.907 72.7444C131.906 72.5684 132.049 72.3369 132.323 72.0499C132.608 71.7739 132.838 71.6301 133.014 71.6295C133.19 71.6289 133.422 71.7711 133.697 72.0451C133.973 72.3301 134.117 72.5606 134.118 72.7366C134.119 72.9236 133.976 73.1551 133.702 73.4311C133.428 73.7071 133.198 73.8509 133.022 73.8515C132.846 73.8521 132.614 73.7099 132.327 73.4359C132.051 73.1619 131.908 72.9314 131.907 72.7444Z" fill="black"/>
<path d="M129.861 88.1059C129.345 87.9958 128.919 87.7251 128.555 87.1639C128.191 86.6027 128.087 85.6132 128.36 84.333L128.807 82.2351C128.846 82.0523 128.931 81.9692 129.05 81.9944C129.103 82.0059 129.156 82.0734 129.206 82.2078C129.263 82.366 129.33 82.4704 129.416 82.5449C129.557 82.6761 129.913 82.7971 130.483 82.9186L134.808 83.8405C135.249 83.9345 135.542 83.9857 135.678 83.9809C135.812 83.9869 135.925 83.9323 136.025 83.83C136.165 83.7023 136.201 83.5302 136.363 83.5646C136.481 83.5898 136.527 83.6896 136.491 83.8618L136.044 85.9596C135.954 86.3792 135.877 86.6889 135.823 86.891C135.72 87.319 135.43 87.9432 135.033 88.2748C134.647 88.6086 134.207 88.7174 133.702 88.6096C133.207 88.5041 132.835 88.2449 132.594 87.8448C132.353 87.4448 132.25 87.0293 132.277 86.5852C132.278 86.5291 132.263 86.4923 132.231 86.4854C132.199 86.4785 132.173 86.4954 132.161 86.5492C131.819 87.6797 130.926 88.333 129.861 88.1059ZM130.067 87.1938C131.24 87.4437 131.885 86.7378 132.213 85.1993C132.27 84.9304 132.386 84.3364 132.386 84.3364C132.406 84.2395 132.372 84.1873 132.276 84.1667L130.328 83.7516C129.65 83.6071 129.246 83.5546 129.133 83.6092C129.02 83.6639 128.933 83.8591 128.862 84.1926L128.796 84.5046C128.468 86.0431 128.894 86.9438 130.067 87.1938ZM135.578 84.8707L133.039 84.3295C132.921 84.3043 132.853 84.3574 132.826 84.4865L132.684 85.1535C132.372 86.6166 132.743 87.4605 133.787 87.683C134.292 87.7908 134.704 87.6536 134.933 87.4213C135.058 87.3128 135.159 87.1545 135.259 86.9508C135.466 86.5564 135.521 86.2982 135.615 85.8571C135.627 85.8033 135.652 85.685 135.683 85.4891L135.758 85.134C135.788 84.9942 135.729 84.9028 135.578 84.8707Z" fill="black"/>
<path d="M129.23 92.5435L129.387 92.5947C129.419 92.6049 129.432 92.5979 129.439 92.577C129.443 92.5665 129.439 92.5422 129.432 92.5283C129.358 92.3305 129.296 91.9865 129.248 91.4963C129.21 91.0096 129.159 90.669 129.109 90.4676C128.992 90.0126 128.75 89.7254 128.363 89.5992C127.83 89.4252 127.372 89.6924 127.198 90.2258C127.038 90.7173 127.16 91.3009 127.629 91.7432C127.919 92.0231 128.456 92.291 129.23 92.5435ZM126.548 93.0336C126.517 93.1277 126.448 93.163 126.343 93.1288C126.092 93.0469 125.902 92.6377 126.015 92.2926C126.148 91.8847 126.505 91.7468 127.087 91.8788C127.118 91.889 127.132 91.882 127.135 91.8715C127.139 91.8611 127.132 91.8472 127.107 91.816C126.673 91.304 126.581 90.5567 126.799 89.8874C126.943 89.4482 127.191 89.1127 127.537 88.867C127.884 88.6213 128.259 88.5702 128.667 88.7033C129.106 88.8466 129.404 89.1752 129.553 89.6751C129.638 89.9459 129.679 90.3179 129.692 90.8083C129.706 91.2986 129.711 91.6012 129.726 91.7333C129.807 92.4077 130.088 92.8233 130.558 92.9769C131.102 93.1543 131.626 92.9318 131.821 92.3358C131.926 92.0116 131.921 91.709 131.801 91.4036C131.652 91.008 131.256 90.5896 131.169 90.4684C131.085 90.3716 131.056 90.2813 131.083 90.1976C131.135 90.0408 131.315 90.0188 131.619 90.1177C131.974 90.2337 132.208 90.3679 132.327 90.5341C132.45 90.7247 132.501 91.0305 132.469 91.4481C132.46 91.723 132.399 92.0155 132.294 92.3397C132.086 92.9776 131.737 93.4077 131.237 93.6265C130.821 93.8031 130.24 93.7755 129.477 93.5264C129.299 93.4684 129.009 93.3624 128.605 93.2188C128.201 93.0753 127.897 92.9764 127.688 92.9081C127.364 92.8023 127.259 92.7682 127.009 92.7211C126.754 92.6844 126.623 92.734 126.578 92.8699C126.568 92.9013 126.558 93.0022 126.548 93.0336Z" fill="black"/>
<path d="M131.693 98.6631C131.581 98.6161 131.484 98.4794 131.39 98.2489C131.302 98.0327 131.276 97.8668 131.323 97.7553C131.366 97.6539 131.503 97.5563 131.733 97.4626C131.96 97.3789 132.126 97.3534 132.227 97.3962C132.318 97.4346 132.416 97.5713 132.514 97.7917C132.608 98.0223 132.633 98.1882 132.59 98.2896C132.543 98.4011 132.407 98.4986 132.18 98.5823C131.96 98.6803 131.794 98.7058 131.693 98.6631ZM124.99 96.0992C124.887 96.1749 124.805 96.1999 124.754 96.1785C124.642 96.1315 124.616 96.0248 124.68 95.8727L125.317 94.3625C125.381 94.2105 125.476 94.1551 125.587 94.2021C125.648 94.2277 125.688 94.3041 125.696 94.4268C125.713 94.613 125.755 94.7384 125.815 94.8233C125.924 94.9888 126.258 95.1891 126.835 95.4327L129.146 96.4073C129.44 96.5312 129.635 96.5778 129.746 96.541C129.843 96.5101 129.947 96.4344 130.041 96.2952C130.146 96.1603 130.241 96.1048 130.322 96.139C130.433 96.186 130.467 96.248 130.419 96.5024C130.366 96.8263 130.336 97.124 130.335 97.41C130.331 97.5039 130.326 97.5733 130.313 97.6037C130.262 97.7253 130.155 97.7519 129.993 97.6835L126.506 96.2131C125.939 95.9738 125.552 95.8706 125.358 95.9078C125.245 95.92 125.121 95.9872 124.99 96.0992Z" fill="black"/>
<path d="M122.173 102.075C121.909 102.195 121.681 102.46 121.59 102.349C121.484 102.292 121.477 102.189 121.559 102.034L122.238 100.762C122.331 100.588 122.427 100.526 122.524 100.578C122.582 100.609 122.614 100.689 122.611 100.812C122.608 100.935 122.64 101.014 122.688 101.04C122.737 101.066 122.805 101.078 122.899 101.066C123.24 101.035 123.946 100.926 125.034 100.734C125.064 100.725 125.084 100.711 125.089 100.701C125.094 100.691 125.09 100.677 125.081 100.647C124.721 99.9186 124.445 99.4092 124.251 99.1186C124.171 98.9885 124.089 98.9076 124.021 98.8713C123.924 98.8195 123.806 98.8311 123.67 98.921C123.535 99.0108 123.431 99.0425 123.382 99.0166C123.276 98.9596 123.259 98.8509 123.347 98.6859L124.01 97.4439C124.104 97.2692 124.208 97.213 124.315 97.27C124.448 97.2785 124.409 97.6072 124.411 97.7204C124.438 98.0213 124.546 98.4031 124.745 98.871C124.902 99.2542 125.172 99.8224 125.545 100.571C125.593 100.646 125.602 100.651 125.672 100.638L127.228 100.384C127.876 100.269 128.307 100.162 128.501 100.079C128.78 99.9537 128.904 99.7454 129.05 99.8231C129.156 99.8801 129.163 99.9837 129.08 100.139L128.407 101.4C128.319 101.565 128.229 101.617 128.132 101.565C128.025 101.508 128.067 101.219 127.951 101.157C127.902 101.131 127.809 101.119 127.681 101.125C127.301 101.159 126.609 101.264 125.625 101.449C125.566 101.467 125.555 101.486 125.583 101.551C125.99 102.354 126.286 102.874 126.471 103.11C126.538 103.196 126.605 103.256 126.654 103.282C126.76 103.339 126.874 103.313 127 103.218C127.125 103.123 127.215 103.096 127.273 103.127C127.38 103.184 127.391 103.302 127.303 103.467L126.64 104.709C126.552 104.874 126.457 104.936 126.35 104.879C126.219 104.796 126.263 104.62 126.254 104.428C126.246 104.187 126.128 103.8 125.91 103.297C125.692 102.794 125.422 102.226 125.119 101.602C125.072 101.527 125.091 101.538 125.003 101.54L123.426 101.783C122.769 101.894 122.358 101.986 122.173 102.075Z" fill="black"/>
<path d="M123.477 105.713C123.422 105.676 123.376 105.684 123.339 105.739L122.231 107.367C121.829 107.958 121.799 108.297 122.244 108.6C122.49 108.767 122.785 108.821 123.137 108.755C123.482 108.697 123.768 108.492 123.997 108.155C124.207 107.846 124.293 107.505 124.247 107.142C124.163 106.406 123.795 105.929 123.477 105.713ZM119.282 107.556C119.082 107.42 118.979 107.044 118.988 106.424C118.993 105.909 119.153 105.419 119.462 104.964C119.883 104.346 120.454 103.976 121.16 103.858C121.875 103.745 122.575 103.929 123.275 104.405C123.976 104.882 124.427 105.508 124.655 106.288C124.883 107.068 124.769 107.803 124.311 108.476C123.958 108.994 123.498 109.319 122.926 109.436C122.361 109.544 121.861 109.457 121.434 109.166C120.961 108.844 120.903 108.538 121.255 108.02L123.006 105.446C123.049 105.382 123.047 105.327 122.983 105.284C122.419 104.901 121.884 104.709 121.387 104.717C120.706 104.72 120.191 104.968 119.851 105.468C119.647 105.769 119.528 106.1 119.509 106.46C119.497 106.771 119.57 107.113 119.605 107.297C119.658 107.572 119.437 107.661 119.282 107.556Z" fill="black"/>
<path d="M109.739 116.672C109.615 116.717 109.529 116.709 109.475 116.654C109.39 116.568 109.414 116.467 109.54 116.344L110.691 115.208C110.816 115.084 110.917 115.062 111.002 115.148C111.056 115.203 111.064 115.288 111.024 115.405C110.961 115.56 110.944 115.7 110.974 115.824C111.027 116.035 111.258 116.348 111.683 116.778L112.981 118.094C113.36 118.478 113.747 118.667 114.121 118.654C114.424 118.648 114.697 118.518 114.94 118.279C115.222 118 115.356 117.667 115.343 117.293C115.33 117.013 115.207 116.701 114.976 116.389C114.745 116.076 114.297 115.575 113.61 114.878C113.2 114.463 112.883 114.22 112.658 114.164C112.557 114.14 112.425 114.147 112.246 114.2C112.129 114.238 112.043 114.229 111.989 114.175C111.904 114.089 111.928 113.988 112.053 113.864L113.205 112.728C113.33 112.605 113.431 112.582 113.516 112.668C113.57 112.723 113.577 112.809 113.53 112.933C113.474 113.096 113.458 113.236 113.488 113.345C113.541 113.555 113.772 113.868 114.197 114.299L115.495 115.614C115.928 116.053 116.315 116.258 116.665 116.221C116.922 116.2 117.156 116.077 117.368 115.868C117.65 115.59 117.792 115.264 117.795 114.876C117.789 114.572 117.682 114.245 117.451 113.901C117.22 113.557 116.78 113.064 116.124 112.398C115.683 111.952 115.374 111.717 115.18 111.676C115.079 111.652 114.939 111.667 114.767 111.712C114.65 111.75 114.565 111.742 114.511 111.687C114.426 111.601 114.45 111.5 114.567 111.384L115.718 110.249C115.844 110.125 115.945 110.103 116.03 110.189C116.084 110.244 116.091 110.329 116.052 110.446C115.996 110.593 115.98 110.733 116.002 110.865C116.04 111.06 116.278 111.38 116.711 111.819L118.302 113.432C118.634 113.769 118.859 113.934 118.983 113.95C119.069 113.959 119.194 113.913 119.357 113.828C119.498 113.752 119.599 113.745 119.661 113.807C119.746 113.893 119.737 114.01 119.635 114.173C119.478 114.42 119.336 114.684 119.225 114.963C119.201 115.033 119.162 115.087 119.123 115.126C119.021 115.226 118.905 115.218 118.781 115.092L118.271 114.575C118.256 114.56 118.24 114.56 118.232 114.567C118.224 114.575 118.224 114.591 118.232 114.63C118.374 115.401 118.183 116.053 117.651 116.578C117.079 117.142 116.394 117.231 115.828 116.986C115.781 116.954 115.758 116.977 115.765 117.047C115.908 117.834 115.724 118.478 115.2 118.996C114.73 119.459 114.192 119.619 113.571 119.475C113.229 119.395 112.842 119.128 112.409 118.689L111.096 117.358C110.671 116.927 110.362 116.691 110.152 116.636C110.051 116.612 109.919 116.618 109.739 116.672Z" fill="black"/>
<path d="M110.02 120.405C109.98 120.352 109.934 120.345 109.881 120.384L108.299 121.556C107.724 121.981 107.583 122.29 107.904 122.724C108.081 122.962 108.342 123.111 108.696 123.164C109.041 123.224 109.378 123.124 109.705 122.882C110.006 122.66 110.199 122.366 110.276 122.008C110.439 121.285 110.249 120.714 110.02 120.405ZM105.452 120.762C105.308 120.567 105.335 120.178 105.547 119.596C105.722 119.111 106.035 118.701 106.477 118.374C107.078 117.929 107.739 117.768 108.444 117.889C109.157 118.019 109.757 118.423 110.261 119.104C110.765 119.784 110.985 120.525 110.942 121.337C110.9 122.148 110.55 122.804 109.896 123.288C109.392 123.661 108.85 123.816 108.272 123.738C107.703 123.653 107.26 123.406 106.952 122.991C106.612 122.531 106.658 122.223 107.162 121.85L109.663 119.998C109.725 119.952 109.741 119.899 109.695 119.837C109.289 119.289 108.847 118.932 108.375 118.775C107.732 118.554 107.164 118.618 106.678 118.978C106.386 119.194 106.164 119.468 106.028 119.801C105.914 120.091 105.87 120.438 105.843 120.623C105.801 120.9 105.564 120.912 105.452 120.762Z" fill="black"/>
<path d="M99.2802 123.583C99.2246 123.488 99.2617 123.377 99.3914 123.25C99.6144 123.043 99.8073 122.829 99.9606 122.611C100.014 122.529 100.07 122.471 100.127 122.438C100.25 122.366 100.361 122.403 100.455 122.564L100.817 123.181C100.839 123.219 100.867 123.202 100.873 123.148C100.892 122.461 101.271 121.781 101.926 121.397C102.43 121.103 102.913 121.036 103.353 121.2C103.772 121.349 104.168 121.742 104.54 122.379L105.618 124.22C105.818 124.562 105.984 124.758 106.1 124.805C106.181 124.834 106.304 124.826 106.493 124.779C106.648 124.739 106.748 124.757 106.792 124.833C106.853 124.938 106.822 125.058 106.687 125.175C106.496 125.351 106.294 125.571 106.098 125.825C106.049 125.893 105.988 125.941 105.94 125.969C105.817 126.041 105.706 126.004 105.617 125.852L103.822 122.786C103.372 122.017 102.746 121.708 102.015 122.136C101.663 122.341 101.436 122.628 101.341 122.989C101.266 123.275 101.299 123.613 101.438 124.003C101.577 124.393 101.883 125.004 102.356 125.811C102.644 126.305 102.855 126.577 102.977 126.633C103.057 126.662 103.18 126.654 103.369 126.607C103.524 126.567 103.624 126.585 103.674 126.671C103.735 126.775 103.698 126.886 103.563 127.003C103.382 127.173 103.189 127.388 102.975 127.653C102.925 127.721 102.874 127.764 102.826 127.791C102.693 127.869 102.582 127.832 102.494 127.68L100.454 124.196C100.254 123.854 100.089 123.658 99.9723 123.611C99.8859 123.573 99.7537 123.586 99.5796 123.637C99.4244 123.677 99.3246 123.659 99.2802 123.583Z" fill="black"/>
<path d="M91.4871 127.423C91.6249 126.71 92.2161 126.011 93.0373 125.694C93.8072 125.398 94.5275 125.462 95.2021 125.898C95.6722 126.2 96.0318 126.675 96.2808 127.321C96.6604 128.307 96.6475 129.467 96.0927 130.352C95.7818 130.861 95.3255 131.237 94.7199 131.471C94.2785 131.641 93.687 131.727 93.356 131.571C93.1854 131.496 93.0329 131.283 92.9024 130.945C92.7522 130.555 92.7592 130.328 92.9234 130.265C93.105 130.124 93.3634 130.52 93.6289 130.688C94.0318 130.969 94.4519 131.02 94.8831 130.854C95.2937 130.696 95.5755 130.387 95.7285 129.927C95.9217 129.357 95.8732 128.681 95.5727 127.9C95.3632 127.356 95.0723 126.938 94.7042 126.655C94.1843 126.254 93.6236 126.176 93.0077 126.413C92.5047 126.607 92.1424 126.982 91.9373 127.521C91.8718 127.687 91.8032 127.785 91.7313 127.812C91.6184 127.856 91.5331 127.818 91.4856 127.695C91.4619 127.633 91.4611 127.539 91.4871 127.423Z" fill="black"/>
<path d="M84.8836 128.764C84.8552 128.658 84.9204 128.56 85.0791 128.473C85.3491 128.332 85.5921 128.176 85.7976 128.008C85.8713 127.943 85.94 127.901 86.0037 127.884C86.1419 127.848 86.239 127.913 86.2872 128.093L86.4715 128.784C86.4828 128.827 86.5147 128.818 86.5352 128.767C86.7357 128.11 87.282 127.555 88.0153 127.359C88.5787 127.209 89.0626 127.273 89.4431 127.548C89.8074 127.803 90.0844 128.287 90.2744 128.999L90.8244 131.061C90.9265 131.444 91.0342 131.677 91.1341 131.753C91.2042 131.802 91.3247 131.827 91.5196 131.832C91.6797 131.835 91.7711 131.879 91.7938 131.964C91.825 132.081 91.7626 132.189 91.6011 132.266C91.3708 132.384 91.1171 132.543 90.8614 132.736C90.7955 132.788 90.7239 132.819 90.6708 132.833C90.5326 132.87 90.4355 132.804 90.3902 132.634L89.4744 129.201C89.2448 128.34 88.7225 127.876 87.9042 128.095C87.5109 128.2 87.2154 128.415 87.0284 128.738C86.8803 128.994 86.8215 129.328 86.852 129.741C86.8825 130.155 87.0158 130.825 87.2568 131.728C87.4042 132.281 87.5346 132.599 87.6374 132.686C87.7075 132.735 87.828 132.76 88.0228 132.765C88.183 132.768 88.2744 132.812 88.2999 132.907C88.3311 133.024 88.2659 133.121 88.1043 133.199C87.8847 133.314 87.6417 133.47 87.3646 133.669C87.2987 133.721 87.2378 133.748 87.1847 133.763C87.0359 133.802 86.9388 133.737 86.8934 133.567L85.853 129.666C85.7509 129.284 85.6432 129.051 85.5433 128.975C85.4703 128.915 85.3392 128.893 85.1578 128.896C84.9976 128.893 84.9062 128.849 84.8836 128.764Z" fill="black"/>
<path d="M81.4761 134.815C81.0416 134.885 80.8101 134.621 80.7562 134.284C80.7093 133.991 80.7845 133.834 80.9908 133.801C81.1646 133.773 81.4727 133.958 81.7008 133.921C81.9832 133.876 82.1961 133.675 82.3503 133.316C82.4516 133.044 82.5007 132.724 82.4976 132.357C82.4837 131.992 82.4116 131.402 82.2796 130.576C82.1875 130 82.0706 129.618 81.9325 129.451C81.8769 129.382 81.7561 129.323 81.5775 129.251C81.4602 129.214 81.3955 129.158 81.3816 129.071C81.3625 128.951 81.4407 128.883 81.6036 128.857L83.2112 128.6C83.3741 128.574 83.4697 128.614 83.4888 128.734C83.5009 128.81 83.4588 128.895 83.3589 128.966C83.2081 129.068 83.1043 129.185 83.0691 129.313C83.0008 129.514 83.0056 129.892 83.0942 130.446C83.202 131.119 83.4509 132.605 83.4491 132.595C83.5308 133.105 83.6338 133.401 83.7489 133.494C83.8136 133.55 83.9435 133.596 84.1151 133.624C84.2868 133.653 84.3732 133.706 84.3871 133.792C84.408 133.923 84.3623 133.986 84.1538 134.075C83.9235 134.167 83.6967 134.282 83.4734 134.418C83.3826 134.477 83.31 134.511 83.234 134.523C83.0928 134.545 83.0029 134.471 82.9751 134.297L82.8343 133.417C82.8308 133.395 82.8182 133.386 82.8074 133.388C82.7965 133.39 82.7874 133.402 82.7817 133.437C82.6931 133.718 82.5267 134.001 82.2951 134.294C82.0527 134.589 81.7802 134.767 81.4761 134.815Z" fill="black"/>
<path d="M76.4491 135.294C76.0104 135.328 75.8013 135.046 75.7753 134.706C75.7526 134.41 75.8404 134.26 76.0488 134.244C76.2243 134.231 76.5161 134.44 76.7464 134.422C77.0316 134.4 77.2603 134.217 77.4435 133.872C77.5668 133.609 77.642 133.295 77.6692 132.929C77.6854 132.563 77.662 131.969 77.5982 131.136C77.5537 130.554 77.4687 130.164 77.3447 129.986C77.295 129.912 77.1794 129.844 77.0074 129.758C76.8935 129.711 76.8336 129.65 76.8269 129.562C76.8177 129.441 76.9012 129.38 77.0658 129.367L78.689 129.243C78.8535 129.23 78.9455 129.279 78.9547 129.399C78.9606 129.476 78.9116 129.557 78.8061 129.62C78.6475 129.71 78.5344 129.817 78.4888 129.942C78.4043 130.136 78.378 130.513 78.4208 131.073C78.4728 131.753 78.5988 133.255 78.5979 133.244C78.6374 133.759 78.7157 134.062 78.8228 134.164C78.8827 134.226 79.0084 134.282 79.1771 134.325C79.3458 134.367 79.4276 134.427 79.4343 134.514C79.4444 134.646 79.3937 134.705 79.1786 134.777C78.9415 134.85 78.706 134.945 78.4723 135.062C78.3769 135.114 78.3018 135.142 78.2251 135.148C78.0825 135.158 77.999 135.077 77.9856 134.901L77.9176 134.013C77.9159 133.991 77.9041 133.981 77.8932 133.982C77.8822 133.982 77.8721 133.994 77.8636 134.028C77.7521 134.301 77.563 134.569 77.3081 134.843C77.0423 135.117 76.7562 135.271 76.4491 135.294Z" fill="black"/>
<path d="M72.0361 129.881C71.9262 129.815 71.8713 129.749 71.8714 129.694C71.8716 129.573 71.9597 129.507 72.1247 129.507L73.7637 129.51C73.9287 129.51 74.0166 129.576 74.0164 129.697C74.0163 129.763 73.9612 129.829 73.8511 129.884C73.686 129.971 73.5869 130.059 73.5317 130.147C73.4215 130.312 73.3659 130.697 73.365 131.324L73.3613 133.832C73.3609 134.151 73.3936 134.349 73.4705 134.437C73.5364 134.514 73.6463 134.58 73.8112 134.614C73.9761 134.658 74.064 134.724 74.0639 134.812C74.0637 134.933 74.0197 134.988 73.7666 135.043C73.4475 135.119 73.1613 135.207 72.8972 135.316C72.8091 135.349 72.7431 135.371 72.7101 135.371C72.5781 135.371 72.5122 135.283 72.5125 135.107L72.518 131.323C72.5189 130.707 72.4645 130.311 72.3547 130.145C72.2999 130.046 72.19 129.958 72.0361 129.881ZM71.7612 137.35L73.4898 136.263C73.5779 136.197 73.6879 136.164 73.8309 136.165L74.3259 136.165C74.3699 136.165 74.3919 136.187 74.3919 136.22C74.3918 136.231 74.3698 136.264 74.3258 136.297L73.0262 137.351C72.9161 137.45 72.784 137.494 72.619 137.494L71.827 137.493C71.75 137.493 71.717 137.471 71.7171 137.427C71.7171 137.394 71.7282 137.372 71.7612 137.35Z" fill="black"/>
<path d="M66.2067 130.062C66.6411 129.48 67.4776 129.107 68.3546 129.18C69.1768 129.248 69.7974 129.619 70.2154 130.305C70.5072 130.781 70.6246 131.365 70.5676 132.055C70.4807 133.108 69.9645 134.147 69.0798 134.703C68.5785 135.026 68.0041 135.166 67.3573 135.113C66.8859 135.074 66.3157 134.894 66.0853 134.61C65.9646 134.468 65.9196 134.21 65.9495 133.849C65.9838 133.432 66.0887 133.231 66.2641 133.246C66.4888 133.198 66.5495 133.666 66.715 133.934C66.9556 134.362 67.3121 134.59 67.7725 134.628C68.211 134.664 68.5991 134.509 68.9369 134.161C69.3585 133.733 69.6092 133.102 69.678 132.269C69.7259 131.688 69.6461 131.185 69.4375 130.77C69.1437 130.183 68.673 129.868 68.0153 129.814C67.4781 129.77 66.9886 129.95 66.5696 130.346C66.4382 130.467 66.3341 130.525 66.2574 130.519C66.1368 130.509 66.0764 130.438 66.0873 130.306C66.0927 130.24 66.1328 130.155 66.2067 130.062Z" fill="black"/>
<path d="M59.4073 128.35C59.4282 128.243 59.5293 128.184 59.7105 128.174C60.0146 128.166 60.3013 128.132 60.5599 128.07C60.6546 128.044 60.7344 128.037 60.7992 128.049C60.9396 128.077 60.9984 128.178 60.9628 128.361L60.8264 129.063C60.818 129.106 60.8504 129.113 60.8912 129.076C61.3587 128.573 62.0929 128.312 62.838 128.457C63.4103 128.568 63.8174 128.837 64.0397 129.25C64.2555 129.639 64.2931 130.196 64.1526 130.919L63.7457 133.014C63.6702 133.403 63.6652 133.66 63.7219 133.772C63.7633 133.847 63.8608 133.922 64.0339 134.011C64.1767 134.084 64.2397 134.163 64.2229 134.25C64.1998 134.369 64.0967 134.438 63.9176 134.437C63.6587 134.443 63.3612 134.475 63.0466 134.537C62.9647 134.555 62.887 134.551 62.833 134.54C62.6927 134.513 62.6339 134.412 62.6674 134.239L63.3448 130.751C63.5147 129.877 63.2479 129.231 62.4164 129.069C62.0169 128.992 61.657 129.056 61.3475 129.265C61.1025 129.43 60.9034 129.706 60.7502 130.09C60.597 130.475 60.4238 131.136 60.2455 132.054C60.1365 132.616 60.1146 132.959 60.1693 133.082C60.2107 133.157 60.3082 133.232 60.4813 133.321C60.624 133.394 60.687 133.473 60.6682 133.571C60.6451 133.689 60.544 133.748 60.365 133.747C60.1169 133.755 59.8302 133.789 59.494 133.847C59.4121 133.865 59.3452 133.863 59.2912 133.852C59.14 133.823 59.0812 133.722 59.1148 133.549L59.8844 129.586C59.9599 129.197 59.965 128.941 59.9083 128.829C59.869 128.743 59.7607 128.666 59.5963 128.589C59.4535 128.516 59.3905 128.437 59.4073 128.35Z" fill="black"/>
<path d="M56.3313 127.379C56.244 127.285 56.2096 127.206 56.225 127.153C56.2587 127.037 56.3616 126.998 56.5201 127.044L58.094 127.501C58.2525 127.547 58.3186 127.635 58.2848 127.752C58.2664 127.815 58.1952 127.863 58.0742 127.885C57.8912 127.924 57.7716 127.98 57.6942 128.05C57.5426 128.177 57.3824 128.532 57.2075 129.134L55.8512 133.803C55.7622 134.109 55.7386 134.309 55.788 134.415C55.8299 134.507 55.9172 134.601 56.0664 134.679C56.2126 134.767 56.2787 134.855 56.2541 134.939C56.2204 135.056 56.1628 135.096 55.9045 135.078C55.5767 135.063 55.2775 135.068 54.9933 135.1C54.8996 135.107 54.83 135.11 54.7984 135.101C54.6716 135.064 54.6328 134.961 54.6819 134.792L56.3941 128.898C56.5659 128.306 56.6236 127.91 56.564 127.721C56.5388 127.611 56.4577 127.496 56.3313 127.379Z" fill="black"/>
<path d="M49.8017 127.354C49.5929 127.886 49.4924 128.414 49.5104 128.941C49.5243 129.478 49.6621 129.91 49.9442 130.245C50.1276 130.471 50.3391 130.625 50.5644 130.713C50.8409 130.821 51.1353 130.854 51.4413 130.797C52.1246 130.651 52.6379 130.155 52.9712 129.305C53.2562 128.578 53.3412 127.879 53.212 127.214C53.0828 126.549 52.7571 126.114 52.2143 125.901C51.7125 125.704 51.2288 125.763 50.7672 126.066C50.3524 126.341 50.0305 126.77 49.8017 127.354ZM50.3014 131.082C49.5128 130.773 48.9884 130.272 48.7528 129.577C48.5172 128.882 48.5488 128.139 48.862 127.34C49.1711 126.551 49.6676 125.978 50.3617 125.624C51.0456 125.266 51.7582 125.226 52.4853 125.511C53.2534 125.812 53.7818 126.303 54.0459 126.985C54.3101 127.668 54.2744 128.422 53.9452 129.262C53.6361 130.05 53.1396 130.624 52.4455 130.978C51.7514 131.332 51.0387 131.371 50.3014 131.082Z" fill="black"/>
<path d="M43.5978 124.039C43.7502 124.127 43.8788 124.366 43.989 124.748C44.0842 125.133 44.0926 125.404 44.0046 125.557C43.9166 125.709 43.6773 125.838 43.3016 125.938C42.9164 126.034 42.6449 126.042 42.4924 125.954C42.3305 125.86 42.2019 125.621 42.1012 125.245C42.0006 124.87 41.9922 124.598 42.0802 124.446C42.1682 124.293 42.4075 124.165 42.7887 124.055C43.1643 123.954 43.4359 123.946 43.5978 124.039Z" fill="black"/>
<defs>
<linearGradient id="paint0_linear_1365_871" x1="0" y1="0" x2="171.437" y2="41.8852" gradientUnits="userSpaceOnUse">
<stop stop-color="#F4FAFE"/>
<stop offset="0.494792" stop-color="#FEFFFF"/>
<stop offset="1" stop-color="#F9F3FE"/>
</linearGradient>
</defs>
</svg>
